<svg width="38" height="38" viewBox="0 0 38 38" fill="none" xmlns="http://www.w3.org/2000/svg">
<g clip-path="url(#clip0_1_470)">
<path d="M20.1133 38H17.8867C17.6314 37.9688 17.3761 37.9354 17.12 37.9072C13.6837 37.5332 10.5472 36.3642 7.7759 34.292C3.72355 31.2624 1.21496 27.2531 0.296875 22.2679C0.165508 21.5554 0.0972266 20.8317 0 20.1133C0 19.3711 0 18.6289 0 17.8867C0.0207813 17.7806 0.0526953 17.6752 0.0616016 17.5676C0.377031 13.611 1.77754 10.0804 4.29652 7.01812C7.28902 3.37992 11.118 1.12664 15.7648 0.292422C16.4669 0.16625 17.1794 0.0957422 17.8867 0C18.6289 0 19.3711 0 20.1133 0C20.209 0.0200391 20.304 0.0519531 20.4005 0.059375C23.6728 0.305039 26.695 1.3107 29.4144 3.14242C33.9328 6.18539 36.716 10.3936 37.7061 15.7633C37.8352 16.4654 37.9035 17.1787 38 17.8867V20.1133C37.9792 20.209 37.9466 20.3033 37.9391 20.3998C37.6675 23.989 36.4822 27.2531 34.3477 30.1447C31.3144 34.2542 27.2724 36.7895 22.2367 37.7061C21.5346 37.8338 20.8213 37.9035 20.1133 38ZM14.0296 22.2493V21.0098H11.2731C11.9114 20.3062 12.4918 19.7132 13.0135 19.0735C13.3126 18.7061 13.5872 18.2882 13.7513 17.8481C14.1513 16.7742 13.6822 15.7039 12.6944 15.3343C11.99 15.0709 11.2657 15.0516 10.5517 15.3032C9.60242 15.6371 8.93074 16.6139 9.04281 17.4904H10.5643C10.6637 17.2247 10.7328 16.9605 10.8582 16.7252C11.0059 16.4484 11.2738 16.3541 11.5841 16.3853C11.8898 16.4157 12.114 16.5849 12.1659 16.8729C12.2149 17.1408 12.2335 17.4481 12.1474 17.6975C12.042 18.004 11.8498 18.3001 11.6323 18.5443C10.9755 19.2828 10.3283 20.0383 9.59871 20.7004C9.09254 21.1605 9.10293 21.663 9.16602 22.2508H14.0296V22.2493ZM17.552 22.2508H19.1945V20.7657H19.8795V19.5077H19.1789V15.22C18.7506 15.22 18.3565 15.2379 17.9646 15.2141C17.6848 15.197 17.5223 15.2861 17.3731 15.5325C16.6302 16.7564 15.891 17.9847 15.0939 19.1744C14.748 19.691 14.7102 20.1853 14.8764 20.7768H17.5513V22.2508H17.552ZM27.2821 16.478C26.3914 18.4352 25.5305 20.3285 24.648 22.2686C25.1386 22.2686 25.5691 22.2508 25.9981 22.2745C26.2742 22.2901 26.4055 22.2003 26.5154 21.9383C27.2873 20.0932 28.0925 18.2608 28.8548 16.4112C28.9973 16.0654 28.9943 15.6602 29.0641 15.2475H23.9496V16.4773H27.2821V16.478ZM20.0606 22.8653C20.3671 22.8653 20.6269 22.8453 20.8822 22.8705C21.142 22.8965 21.2399 22.7941 21.3149 22.5514C21.8255 20.8881 22.3539 19.2308 22.8764 17.5713C23.1199 16.7979 23.3648 16.0246 23.6201 15.2171C23.3388 15.2171 23.1028 15.2356 22.8713 15.2126C22.567 15.1822 22.4252 15.2816 22.3309 15.5926C21.7632 17.4577 21.1679 19.3139 20.5838 21.1739C20.4109 21.7238 20.2432 22.2745 20.0606 22.8646V22.8653Z" fill="#E21E26"/>
<path d="M17.5468 17.5253V19.4958H16.3066C16.7044 18.8115 17.0896 18.1495 17.4755 17.4874C17.4993 17.5 17.523 17.5127 17.5475 17.5253H17.5468Z" fill="#E21E26"/>
</g>
<defs>
<clipPath id="clip0_1_470">
<rect width="38" height="38" fill="white"/>
</clipPath>
</defs>
</svg>
