<svg width="10" height="10" viewBox="0 0 10 10" fill="none" xmlns="http://www.w3.org/2000/svg">
<g clip-path="url(#clip0_573_85)">
<path d="M0 8.32031V2.44141C0.0130208 2.38828 0.0263021 2.33516 0.0390625 2.28203C0.179687 1.69453 0.522396 1.26198 1.0513 0.977865C1.33854 0.823698 1.65547 0.779167 1.9763 0.7625C2.08516 0.756771 2.19427 0.761719 2.30417 0.761719C2.30417 0.633333 2.30182 0.519271 2.30521 0.405469C2.30677 0.352344 2.31172 0.296615 2.32891 0.246875C2.37604 0.110417 2.48542 0.0408854 2.61719 0C2.66276 0 2.70833 0 2.75391 0C2.76693 0.00625 2.77917 0.0143229 2.79271 0.01875C2.9763 0.0783854 3.0849 0.227604 3.06849 0.404427C3.05755 0.522396 3.06641 0.642188 3.06641 0.761979H6.91406C6.91406 0.730208 6.91406 0.704427 6.91406 0.678906C6.91406 0.578125 6.91224 0.477083 6.91432 0.376302C6.91875 0.16901 7.04661 0.0625 7.22656 0H7.38281C7.61901 0.0916667 7.71302 0.26875 7.69661 0.515625C7.69088 0.601823 7.69583 0.688802 7.69583 0.78125C7.81849 0.78125 7.93177 0.778646 8.04479 0.782031C8.16354 0.785417 8.28437 0.78125 8.4 0.803906C8.74844 0.871875 9.0612 1.01354 9.33281 1.25182C9.57578 1.46484 9.75312 1.71719 9.8625 2.01745C9.91771 2.16849 9.95495 2.32604 10.0003 2.48073V8.32057C9.98724 8.34089 9.96849 8.35964 9.96224 8.38203C9.92786 8.50573 9.90729 8.63412 9.86224 8.75365C9.6539 9.30651 9.26198 9.67839 8.71198 9.88203C8.56719 9.93568 8.41224 9.96172 8.26198 10.0005H8.10573C8.06875 9.99401 8.03203 9.98177 7.99505 9.98177C5.96562 9.98073 3.93646 9.98073 1.90703 9.98177C1.87682 9.98177 1.84661 9.99401 1.81667 10.0005H1.69948C1.68984 9.99401 1.68073 9.98255 1.67083 9.98177C1.46745 9.96589 1.27604 9.90313 1.09583 9.8138C0.850521 9.69193 0.632812 9.53385 0.45599 9.31719C0.31875 9.1487 0.202344 8.97057 0.128125 8.76849C0.0747396 8.62318 0.0421875 8.47031 0.000260417 8.32109L0 8.32031ZM2.28516 1.56589C2.14219 1.56484 1.99896 1.56094 1.85599 1.56328C1.59323 1.56719 1.36198 1.66276 1.16719 1.83359C0.78776 2.16641 0.739844 2.60443 0.791667 3.06693H9.22682C9.21745 2.87031 9.23255 2.67526 9.19401 2.49167C9.10547 2.06875 8.85417 1.77188 8.44062 1.62031C8.20286 1.53333 7.95781 1.56901 7.71458 1.56589C7.70937 1.57135 7.70391 1.57656 7.6987 1.58203C7.69766 1.80625 7.69375 2.03073 7.69635 2.25495C7.69948 2.50573 7.53828 2.71042 7.25495 2.70156C7.11797 2.6974 6.90937 2.49167 6.91354 2.35833C6.92109 2.11797 6.9151 1.87708 6.91432 1.63646C6.91432 1.60885 6.91042 1.58125 6.90859 1.55547H3.08516C3.08516 1.80182 3.08724 2.04219 3.08437 2.28255C3.08255 2.43776 3.02344 2.56901 2.8849 2.64818C2.7612 2.71901 2.6276 2.725 2.50156 2.65547C2.37812 2.58724 2.30469 2.48125 2.30443 2.33333C2.30391 2.08307 2.30208 1.83255 2.30104 1.58229C2.29583 1.57682 2.29062 1.57135 2.28516 1.56615V1.56589ZM0.783854 3.85625C0.782552 3.88255 0.78125 3.8987 0.78125 3.91484C0.78125 5.31094 0.78125 6.70677 0.782292 8.10287C0.782292 8.17266 0.788021 8.24375 0.802864 8.31172C0.916146 8.83021 1.38542 9.21875 1.91484 9.21823C3.95833 9.21615 6.00208 9.21927 8.04557 9.21458C8.18151 9.21432 8.32292 9.18359 8.45208 9.1388C8.92917 8.97344 9.21536 8.54115 9.21719 8.04844C9.22187 6.68177 9.21875 5.31484 9.21875 3.94818C9.21875 3.91719 9.21588 3.88646 9.21432 3.85599H0.783854V3.85625Z" fill="#009046"/>
<path d="M1.81641 10C1.84661 9.99354 1.87682 9.9813 1.90677 9.9813C3.9362 9.98052 5.96536 9.98052 7.99479 9.9813C8.03177 9.9813 8.06849 9.99354 8.10547 10H1.81641Z" fill="#222222"/>
<path d="M2.30104 1.58206C2.29583 1.5766 2.29062 1.57113 2.28516 1.56592C2.29036 1.57139 2.29557 1.57686 2.30104 1.58206Z" fill="#F2F2F2"/>
<path d="M2.67657 8.08439C2.54636 8.08439 2.41641 8.08517 2.2862 8.08439C2.09037 8.08282 1.94167 7.93048 1.91589 7.7547C1.8849 7.54428 2.006 7.36954 2.20235 7.32475C2.24818 7.31433 2.29584 7.30444 2.34272 7.30522C2.61433 7.30965 2.88594 7.31147 3.15704 7.32683C3.29688 7.33465 3.42397 7.46329 3.456 7.59741C3.48959 7.73777 3.42475 7.92475 3.31355 8.00209C3.23412 8.0573 3.14949 8.0922 3.04766 8.08699C2.92449 8.08048 2.80053 8.08543 2.67683 8.08543C2.67683 8.08517 2.67683 8.08491 2.67683 8.08465L2.67657 8.08439Z" fill="#009046"/>
<path d="M2.6763 5.78073C2.54947 5.78073 2.42239 5.77709 2.29583 5.78151C2.09479 5.78855 1.91979 5.59506 1.91197 5.41068C1.90286 5.19636 2.07161 5.00521 2.28541 5.00157C2.54557 4.9974 2.80598 4.99688 3.06614 5.00105C3.26119 5.00417 3.43958 5.15157 3.45781 5.31329C3.48333 5.53959 3.38072 5.70105 3.16901 5.76589C3.14244 5.77396 3.1138 5.77995 3.08619 5.78021C2.94947 5.78178 2.81302 5.78099 2.6763 5.78073Z" fill="#009046"/>
<path d="M4.98698 5.7805C4.85703 5.7805 4.72683 5.77816 4.59688 5.78102C4.39636 5.78571 4.22787 5.59717 4.21719 5.41618C4.20547 5.22009 4.3487 5.00733 4.58412 5.00186C4.8474 4.99561 5.11146 4.98806 5.37396 5.00342C5.60209 5.01696 5.72422 5.12295 5.75964 5.32608C5.79636 5.53623 5.67813 5.70628 5.4711 5.76852C5.44427 5.7766 5.41537 5.77998 5.38724 5.78024C5.25391 5.78154 5.12058 5.78076 4.98724 5.78076L4.98698 5.7805Z" fill="#009046"/>
<path d="M4.98751 8.08491C4.85418 8.08491 4.72058 8.08647 4.58725 8.08465C4.38959 8.08153 4.24298 7.92501 4.22058 7.75027C4.19376 7.54142 4.31563 7.36486 4.50209 7.32528C4.55756 7.31356 4.61511 7.30444 4.67162 7.30522C4.93673 7.30939 5.20287 7.30418 5.46615 7.32866C5.66615 7.34741 5.78516 7.5297 5.76173 7.74741C5.74298 7.92293 5.58516 8.08387 5.38751 8.08491C5.37787 8.08491 5.36798 8.08517 5.35834 8.08517C5.23464 8.08517 5.11095 8.08517 4.98751 8.08517V8.08465V8.08491Z" fill="#009046"/>
<path d="M7.28827 5.78017C7.15494 5.78017 7.02187 5.78096 6.88853 5.78017C6.71588 5.77887 6.55025 5.62705 6.52447 5.44033C6.5052 5.29944 6.59166 5.07965 6.76067 5.03929C6.8276 5.0234 6.89557 5.00309 6.96327 5.00179C7.194 4.9971 7.42499 4.99267 7.65546 5.00231C7.86588 5.01116 7.98619 5.08096 8.04999 5.26793C8.13515 5.51715 7.94999 5.77835 7.68801 5.78096C7.55468 5.78226 7.42161 5.78096 7.28827 5.78096C7.28827 5.78069 7.28827 5.78043 7.28827 5.78017Z" fill="#009046"/>
<path d="M7.29505 8.08407C7.1586 8.08407 7.02214 8.08538 6.88568 8.08381C6.68958 8.08147 6.54896 7.91246 6.5263 7.73303C6.50443 7.56038 6.61354 7.36897 6.79583 7.32548C6.84792 7.31298 6.90261 7.30543 6.95599 7.30491C7.18672 7.30282 7.41745 7.301 7.64792 7.30491C7.92917 7.30934 8.10625 7.48642 8.06354 7.77444C8.03985 7.9346 7.89792 8.0721 7.7138 8.08303C7.57448 8.09137 7.43438 8.0846 7.29479 8.0846C7.29479 8.0846 7.29479 8.0846 7.29479 8.08434L7.29505 8.08407Z" fill="#009046"/>
</g>
<defs>
<clipPath id="clip0_573_85">
<rect width="10" height="10" fill="white"/>
</clipPath>
</defs>
</svg>
