<svg width="68" height="61" viewBox="0 0 68 61" fill="none" xmlns="http://www.w3.org/2000/svg">
<g filter="url(#filter0_d_1_747)">
<path fill-rule="evenodd" clip-rule="evenodd" d="M43.4093 1C44.8019 1.00005 46.167 1.3924 47.3516 2.1331C48.5363 2.8738 49.4937 3.93359 50.1166 5.19376L53.5816 12.2028C54.1916 11.9498 54.7915 11.6766 55.3815 11.3832C55.9749 11.0834 56.6618 11.0343 57.291 11.2468C57.9201 11.4593 58.4401 11.916 58.7365 12.5164C59.0328 13.1168 59.0813 13.8117 58.8713 14.4483C58.6613 15.0849 58.2099 15.611 57.6165 15.9109C57.0156 16.1815 56.4114 16.4446 55.804 16.7001L58.2065 21.5641C58.7279 22.6188 58.9993 23.7819 58.999 24.9611V31.3529C59.0005 32.4208 58.7785 33.4769 58.3477 34.4517C57.9168 35.4265 57.2867 36.298 56.499 37.0087V40.2059C56.499 41.2121 56.1039 42.1772 55.4007 42.8887C54.6974 43.6003 53.7436 44 52.7491 44C51.7545 44 50.8007 43.6003 50.0975 42.8887C49.3942 42.1772 48.9992 41.2121 48.9992 40.2059V38.9412H18.9998V40.2059C18.9998 41.2121 18.6047 42.1772 17.9015 42.8887C17.1982 43.6003 16.2444 44 15.2499 44C14.2553 44 13.3015 43.6003 12.5983 42.8887C11.895 42.1772 11.4999 41.2121 11.4999 40.2059V37.0087C9.96498 35.6175 9 33.5991 9 31.3529V24.9586C9.00047 23.781 9.27178 22.6198 9.79248 21.5666L12.1749 16.7405C11.5724 16.4825 10.975 16.2094 10.3875 15.9134C9.79706 15.6096 9.34827 15.0833 9.13783 14.4479C8.92739 13.8124 8.97216 13.1188 9.26249 12.5164C9.40914 12.219 9.61227 11.9538 9.86027 11.7359C10.1083 11.518 10.3963 11.3516 10.7079 11.2464C11.0194 11.1412 11.3485 11.0991 11.6761 11.1226C12.0038 11.146 12.3236 11.2346 12.6174 11.3832C13.2074 11.6792 13.8099 11.9498 14.4174 12.2028L17.8823 5.19629C18.5049 3.93565 19.4622 2.87534 20.6469 2.13417C21.8316 1.39301 23.1968 1.00028 24.5897 1H43.4093ZM22.7497 23.7647C21.7552 23.7647 20.8014 24.1644 20.0981 24.876C19.3949 25.5875 18.9998 26.5526 18.9998 27.5588C18.9998 28.5651 19.3949 29.5301 20.0981 30.2417C20.8014 30.9532 21.7552 31.3529 22.7497 31.3529C23.7443 31.3529 24.6981 30.9532 25.4013 30.2417C26.1046 29.5301 26.4996 28.5651 26.4996 27.5588C26.4996 26.5526 26.1046 25.5875 25.4013 24.876C24.6981 24.1644 23.7443 23.7647 22.7497 23.7647ZM45.2492 23.7647C44.2547 23.7647 43.3009 24.1644 42.5976 24.876C41.8944 25.5875 41.4993 26.5526 41.4993 27.5588C41.4993 28.5651 41.8944 29.5301 42.5976 30.2417C43.3009 30.9532 44.2547 31.3529 45.2492 31.3529C46.2438 31.3529 47.1976 30.9532 47.9008 30.2417C48.6041 29.5301 48.9992 28.5651 48.9992 27.5588C48.9992 26.5526 48.6041 25.5875 47.9008 24.876C47.1976 24.1644 46.2438 23.7647 45.2492 23.7647ZM43.4093 6.05882H24.5897C24.1782 6.05876 23.7731 6.16146 23.4102 6.35781C23.0474 6.55416 22.7381 6.83809 22.5097 7.18441L22.3547 7.45759L19.1798 13.8772C23.0497 15.0509 28.2646 16.1765 33.9995 16.1765C39.3544 16.1765 44.2518 15.1951 48.0242 14.1099L48.8167 13.8772L45.6442 7.45759C45.4603 7.0853 45.1883 6.7647 44.8525 6.52423C44.5167 6.28376 44.1275 6.13085 43.7193 6.07906L43.4118 6.05882H43.4093Z" fill="url(#paint0_linear_1_747)" shape-rendering="crispEdges"/>
</g>
<defs>
<filter id="filter0_d_1_747" x="0" y="0" width="68" height="61" filterUnits="userSpaceOnUse" color-interpolation-filters="sRGB">
<feFlood flood-opacity="0" result="BackgroundImageFix"/>
<feColorMatrix in="SourceAlpha" type="matrix" values="0 0 0 0 0 0 0 0 0 0 0 0 0 0 0 0 0 0 127 0" result="hardAlpha"/>
<feOffset dy="8"/>
<feGaussianBlur stdDeviation="4.5"/>
<feComposite in2="hardAlpha" operator="out"/>
<feColorMatrix type="matrix" values="0 0 0 0 1 0 0 0 0 0 0 0 0 0 0.0116959 0 0 0 0.25 0"/>
<feBlend mode="normal" in2="BackgroundImageFix" result="effect1_dropShadow_1_747"/>
<feBlend mode="normal" in="SourceGraphic" in2="effect1_dropShadow_1_747" result="shape"/>
</filter>
<linearGradient id="paint0_linear_1_747" x1="34" y1="1" x2="34.1378" y2="59.655" gradientUnits="userSpaceOnUse">
<stop stop-color="#FF0003"/>
<stop offset="1" stop-color="#FF0003" stop-opacity="0"/>
</linearGradient>
</defs>
</svg>
