<svg width="18" height="17" viewBox="0 0 18 17" fill="none" xmlns="http://www.w3.org/2000/svg">
<g clip-path="url(#clip0_1_2566)">
<path d="M9.06812 1.52931C11.337 1.52931 11.6057 1.53926 12.498 1.57906C13.3273 1.61555 13.7751 1.75487 14.0736 1.87097C14.4684 2.02355 14.7536 2.20931 15.0489 2.50453C15.3474 2.80307 15.5298 3.08503 15.6824 3.47976C15.7985 3.7783 15.9378 4.22943 15.9743 5.05539C16.0141 5.951 16.0241 6.21969 16.0241 8.48527C16.0241 10.7542 16.0141 11.0229 15.9743 11.9152C15.9378 12.7444 15.7985 13.1922 15.6824 13.4908C15.5298 13.8855 15.3441 14.1708 15.0489 14.466C14.7503 14.7645 14.4684 14.947 14.0736 15.0996C13.7751 15.2157 13.324 15.355 12.498 15.3915C11.6024 15.4313 11.3337 15.4412 9.06812 15.4412C6.79922 15.4412 6.53054 15.4313 5.63824 15.3915C4.80896 15.355 4.36115 15.2157 4.06261 15.0996C3.66788 14.947 3.38261 14.7612 3.08739 14.466C2.78885 14.1675 2.60641 13.8855 2.45382 13.4908C2.33772 13.1922 2.1984 12.7411 2.16191 11.9152C2.12211 11.0195 2.11216 10.7509 2.11216 8.48527C2.11216 6.21637 2.12211 5.94769 2.16191 5.05539C2.1984 4.22611 2.33772 3.7783 2.45382 3.47976C2.60641 3.08503 2.79216 2.79976 3.08739 2.50453C3.38593 2.20599 3.66788 2.02355 4.06261 1.87097C4.36115 1.75487 4.81228 1.61555 5.63824 1.57906C6.53054 1.53926 6.79922 1.52931 9.06812 1.52931ZM9.06812 0.00012207C6.76274 0.00012207 6.47415 0.0100734 5.56858 0.0498786C4.66633 0.0896838 4.04603 0.235636 3.50866 0.444614C2.94807 0.663542 2.47372 0.95213 2.00269 1.42648C1.52835 1.8975 1.23976 2.37185 1.02083 2.92912C0.811854 3.46981 0.665901 4.08679 0.626096 4.98904C0.586291 5.89793 0.57634 6.18652 0.57634 8.4919C0.57634 10.7973 0.586291 11.0859 0.626096 11.9914C0.665901 12.8937 0.811854 13.514 1.02083 14.0514C1.23976 14.612 1.52835 15.0863 2.00269 15.5573C2.47372 16.0284 2.94807 16.3203 3.50534 16.5359C4.04603 16.7449 4.66301 16.8908 5.56526 16.9306C6.47083 16.9704 6.75942 16.9804 9.0648 16.9804C11.3702 16.9804 11.6588 16.9704 12.5643 16.9306C13.4666 16.8908 14.0869 16.7449 14.6243 16.5359C15.1815 16.3203 15.6559 16.0284 16.1269 15.5573C16.5979 15.0863 16.8898 14.612 17.1055 14.0547C17.3144 13.514 17.4604 12.897 17.5002 11.9948C17.54 11.0892 17.55 10.8006 17.55 8.49522C17.55 6.18984 17.54 5.90125 17.5002 4.99568C17.4604 4.09343 17.3144 3.47313 17.1055 2.93576C16.8965 2.37185 16.6079 1.8975 16.1335 1.42648C15.6625 0.955448 15.1882 0.663542 14.6309 0.447931C14.0902 0.238953 13.4732 0.0930009 12.571 0.0531957C11.6621 0.0100734 11.3735 0.00012207 9.06812 0.00012207Z" fill="black"/>
<path d="M9.06812 4.13C6.6599 4.13 4.70613 6.08378 4.70613 8.49199C4.70613 10.9002 6.6599 12.854 9.06812 12.854C11.4763 12.854 13.4301 10.9002 13.4301 8.49199C13.4301 6.08378 11.4763 4.13 9.06812 4.13ZM9.06812 11.3215C7.50577 11.3215 6.23863 10.0543 6.23863 8.49199C6.23863 6.92964 7.50577 5.66251 9.06812 5.66251C10.6305 5.66251 11.8976 6.92964 11.8976 8.49199C11.8976 10.0543 10.6305 11.3215 9.06812 11.3215Z" fill="black"/>
<path d="M14.621 3.95744C14.621 4.52135 14.1632 4.97579 13.6026 4.97579C13.0387 4.97579 12.5843 4.51803 12.5843 3.95744C12.5843 3.39353 13.042 2.93909 13.6026 2.93909C14.1632 2.93909 14.621 3.39685 14.621 3.95744Z" fill="black"/>
</g>
<defs>
<clipPath id="clip0_1_2566">
<rect width="16.9836" height="16.9836" fill="white" transform="translate(0.57634 0.00012207)"/>
</clipPath>
</defs>
</svg>
