<svg width="9" height="12" viewBox="0 0 9 12" fill="none" xmlns="http://www.w3.org/2000/svg">
<path d="M4.55102 12H4.43355C4.40505 11.9756 4.37403 11.9537 4.34835 11.9266C4.04481 11.6084 3.73657 11.2944 3.44023 10.97C3.18556 10.6909 2.93246 10.4091 2.70002 10.1119C2.31379 9.61781 1.93193 9.11938 1.57138 8.60656C1.18608 8.05844 0.857485 7.47375 0.581824 6.86281C0.305224 6.24969 0.0680933 5.62031 0.0207925 4.9425C-0.00332779 4.59625 -0.0108458 4.24438 0.023925 3.9C0.0615151 3.52813 0.177731 3.16906 0.317127 2.81844C0.522307 2.30125 0.819894 1.84594 1.19486 1.43906C1.61398 0.984375 2.10516 0.622813 2.67747 0.3875C2.97725 0.264062 3.29551 0.184687 3.60876 0.0959375C3.76257 0.0515625 3.92327 0.0309375 4.08115 0C4.34741 0 4.61367 0 4.87993 0C5.03405 0.03125 5.18692 0.0690625 5.34198 0.0925C5.7492 0.154063 6.13168 0.292813 6.49819 0.471875C7.07175 0.751875 7.55384 1.14906 7.96733 1.635C8.3022 2.02813 8.54496 2.47219 8.73198 2.94812C8.87388 3.30969 8.95 3.69 8.98821 4.07469C9.01108 4.30281 8.99448 4.53531 8.99072 4.76562C8.98884 4.87687 8.99197 4.99219 8.96566 5.09875C8.87137 5.48 8.78272 5.86406 8.66024 6.23656C8.41371 6.98594 8.02716 7.66938 7.60427 8.33125C7.18389 8.98938 6.72686 9.62156 6.21344 10.2113C5.83253 10.6488 5.44441 11.0803 5.05285 11.5081C4.89497 11.6806 4.71892 11.8366 4.55102 12ZM2.43689 4.5C2.40024 5.58094 3.37069 6.63031 4.60615 6.56563C5.54027 6.51656 6.69083 5.67844 6.54831 4.26937C6.4512 3.30844 5.64677 2.44187 4.46989 2.44187C3.34563 2.44187 2.42593 3.35938 2.43689 4.49969V4.5Z" fill="#009046"/>
</svg>
