<svg width="292" height="54" viewBox="0 0 292 54" fill="none" xmlns="http://www.w3.org/2000/svg">
<path d="M28.7672 24.6811C26.6056 31.7694 21.9545 37.0326 15.9583 38.5176C14.4055 38.9016 12.3095 39.1138 9.68504 39.1138H0L7.8552 13.3427C8.46029 11.3457 9.7543 10.285 11.7591 10.2448H20.0517C29.1863 10.2448 31.5775 15.4641 28.7708 24.6811M18.5062 15.2958H13.0531L7.38863 33.8908H12.0872C17.923 33.8908 20.912 30.749 22.7637 24.6811C24.5206 18.9022 23.8426 15.2958 18.5098 15.2958" fill="#E21E26"/>
<path d="M37.9127 11.2543C40.1508 11.2543 40.8762 12.3735 40.1545 14.568L39.5457 16.5577H32.7841L34.4025 11.2543H37.9091" fill="#E21E26"/>
<path d="M48.3888 19.1582H41.6235C43.96 14.162 48.2175 11.7078 54.4141 11.7078C61.8429 11.7078 64.861 14.1583 63.4868 19.1582L60.691 28.3423C58.4237 35.789 52.9379 39.1137 45.5128 39.6185C38.8969 40.1342 35.3393 37.1167 37.1582 31.1476C39.2869 24.6738 44.4922 22.9364 51.509 22.2744C54.5162 21.9123 56.2549 21.0455 56.7069 19.5642C57.0167 18.0353 55.8284 17.2709 53.0363 17.2709C50.6414 17.2709 49.136 17.878 48.3924 19.1582M54.2282 28.035L54.9937 25.5369C53.2149 26.199 51.2101 26.7622 49.1032 27.1682C46.2527 27.6766 44.4922 28.9531 43.8871 30.9428C43.384 33.0861 44.1933 34.1066 46.3293 34.1066C50.0947 34.1066 53.0654 31.8572 54.2282 28.0314" fill="#E21E26"/>
<path d="M71.3894 21.8648L66.1331 39.1138H59.2694L64.1028 23.24C66.4539 15.5336 71.4805 11.7114 79.1571 11.7114C82.6163 11.7114 85.0294 12.4759 86.491 14.0084C88.8713 12.5307 91.7364 11.8175 95.1956 11.8175C102.876 11.8175 105.518 15.6433 103.124 23.3461L98.2866 39.2125H94.78C92.5893 39.0589 91.7983 37.9909 92.4508 35.8512L96.6828 21.9672C97.3826 19.1618 96.2745 17.7866 93.2819 17.7866C90.2892 17.7866 88.3318 19.1618 87.4278 21.9672L82.208 39.1138H75.3881L80.6443 21.8648C81.3478 19.0594 80.2433 17.6805 77.2434 17.6805C74.2435 17.6805 72.297 19.0631 71.393 21.8648" fill="#E21E26"/>
<path d="M128.577 25.7381C125.749 35.0246 120.197 39.7172 112.058 39.7172C103.918 39.7172 101.29 35.0246 104.115 25.7381C106.98 16.3455 112.462 11.7078 120.598 11.7078C128.734 11.7078 131.432 16.3492 128.577 25.7381ZM110.983 25.7381C109.43 30.9977 110.407 33.6457 113.858 33.6457C117.31 33.6457 119.884 30.8952 121.572 25.5369C123.168 20.2774 122.239 17.6769 118.776 17.6769C115.313 17.6769 112.612 20.3798 110.983 25.7381Z" fill="#E21E26"/>
<path d="M145.72 39.1138C143.526 38.9565 142.735 37.8812 143.384 35.7415L147.616 21.8648C148.316 19.0594 147.215 17.6805 144.215 17.6805C141.215 17.6805 139.269 19.0631 138.361 21.8648L133.108 39.1138H126.245L131.082 23.24C133.429 15.5336 138.459 11.7114 146.14 11.7114C153.82 11.7114 156.411 15.5372 154.013 23.24L149.183 39.1138H145.724" fill="#E21E26"/>
<path d="M186.491 3.41615L179.598 27.4279C177.127 35.5404 171.684 39.5673 163.308 39.5161C155.012 39.3625 152.227 34.8198 154.964 25.8406C157.764 16.6601 162.754 11.9638 169.997 11.7078C173.354 11.7078 175.526 13.0867 176.405 15.892L180.823 0H184.18C186.01 0 187.056 1.5764 186.494 3.41615M162.029 25.5406C160.315 31.0014 161.3 33.7555 165.171 33.7555C169.042 33.7555 171.808 31.0014 173.467 25.5406C174.903 20.336 173.799 17.7866 170.135 17.7866C166.472 17.7866 163.818 20.3396 162.029 25.5406Z" fill="#E21E26"/>
<path d="M195.039 3.31374L184.555 39.1138H177.794L189.29 0H192.797C194.576 0 195.589 1.5252 195.042 3.31374" fill="#70706F"/>
<path d="M198.119 39.7172C190.063 39.4576 187.439 34.721 190.238 25.5369C193.034 16.3492 198.549 11.759 206.761 11.7078C215.298 11.7078 217.715 16.9673 213.993 27.5266H196.602C195.6 31.6597 196.737 33.7518 200.047 33.7518C201.622 33.7518 203.298 33.0861 205.012 31.8096C205.821 31.144 206.677 30.844 207.596 30.844H212.575C209.36 36.5571 204.738 39.7172 198.126 39.7172M198.184 22.6767H208.303C208.985 19.107 207.866 17.2709 204.972 17.2709C202.077 17.2709 199.781 19.107 198.184 22.6767Z" fill="#70706F"/>
<path d="M225.891 19.1582H219.126C221.462 14.162 225.719 11.7078 231.923 11.7078C239.345 11.7078 242.363 14.1583 240.992 19.1582L238.197 28.3423C235.929 35.789 230.444 39.1137 223.015 39.6185C216.399 40.1342 212.845 37.1167 214.664 31.1476C216.789 24.6738 221.994 22.9364 229.011 22.2744C232.018 21.9123 233.757 21.0455 234.209 19.5642C234.519 18.0353 233.334 17.2709 230.535 17.2709C228.143 17.2709 226.638 17.878 225.891 19.1582ZM231.727 28.035L232.492 25.5369C230.713 26.199 228.708 26.7622 226.602 27.1682C223.751 27.6766 221.994 28.9531 221.389 30.9428C220.886 33.0861 221.695 34.1066 223.831 34.1066C227.593 34.1066 230.567 31.8572 231.73 28.0314" fill="#70706F"/>
<path d="M250.674 34.2126C253.517 34.2126 255.194 33.397 255.719 31.6633C256.138 30.2844 254.14 29.1579 249.763 28.3459C244.142 27.2743 241.9 24.6226 243.136 20.3871C244.907 14.5716 250.328 11.8175 256.506 11.7114C259.965 11.7114 262.477 12.4759 264.044 14.0084C265.546 15.5921 265.947 17.7866 265.247 20.5883H260.979C259.415 20.5407 258.573 19.9775 258.489 18.9095C258.391 17.7354 257.22 17.0697 254.982 17.0697C252.336 17.0697 250.798 17.7866 250.375 19.1618C249.959 20.5407 251.356 21.6124 254.665 22.2744C258.963 23.1961 261.606 24.3665 262.663 25.7418C263.53 27.0695 263.636 28.7007 263.078 30.5368C261.059 37.1716 255.128 39.6185 248.013 39.6185C244.248 39.6185 241.649 38.8029 240.304 37.2192C238.732 35.694 238.43 33.3422 239.378 30.2332H246.296C245.545 33.1922 247.368 34.2126 250.678 34.2126" fill="#70706F"/>
<path d="M274.141 39.7172C266.078 39.4576 263.457 34.721 266.253 25.5369C269.049 16.3492 274.571 11.759 282.769 11.7078C291.313 11.7078 293.73 16.9673 290.005 27.5266H272.61C271.608 31.6597 272.749 33.7518 276.055 33.7518C277.629 33.7518 279.31 33.0861 281.016 31.8096C281.832 31.144 282.685 30.844 283.6 30.844H288.583C285.368 36.5571 280.746 39.7172 274.137 39.7172M274.188 22.6767H284.307C284.989 19.107 283.87 17.2709 280.968 17.2709C278.067 17.2709 275.785 19.107 274.188 22.6767Z" fill="#70706F"/>
<path d="M32.8242 39.3369L38.0257 22.2708C38.6928 20.08 37.9492 19.0083 35.7658 19.0083H32.2628L26.0625 39.3406H32.8278" fill="#E21E26"/>
<path d="M183.863 53.1003C183.243 53.4112 182.623 53.6379 182.029 53.7769C181.428 53.9269 180.815 54 180.21 54C179.518 54 178.924 53.8976 178.406 53.6855C177.888 53.477 177.476 53.1698 177.17 52.7492C176.857 52.3285 176.667 51.8311 176.605 51.2569C176.547 50.69 176.613 50.0755 176.817 49.4208C177.236 48.0455 178.027 46.9373 179.197 46.0924C180.371 45.2512 181.705 44.8306 183.21 44.8306C183.746 44.8306 184.256 44.8927 184.73 45.0061C185.208 45.1232 185.652 45.306 186.083 45.5511L185.448 47.6286C185.058 47.3067 184.639 47.0726 184.194 46.9154C183.75 46.7654 183.279 46.6849 182.787 46.6849C181.894 46.6849 181.122 46.9227 180.465 47.4165C179.806 47.8992 179.343 48.5649 179.088 49.4208C178.84 50.2474 178.876 50.9058 179.219 51.4068C179.554 51.9006 180.137 52.1457 180.958 52.1457C181.486 52.1457 182.047 52.0542 182.638 51.8677C183.232 51.6811 183.848 51.3995 184.486 51.0338L183.863 53.1003Z" fill="black"/>
<path d="M186.746 53.8427L193.296 44.9841H195.841L196.581 53.8427H194.24L194.135 52.12H190.333L189.108 53.8427H186.75M191.437 50.6021H194.04L193.828 47.2372L191.437 50.6021Z" fill="black"/>
<path d="M199.744 53.8427L202.442 44.9841H205.708C206.903 44.9841 207.731 45.1963 208.176 45.6132C208.62 46.0338 208.704 46.6776 208.438 47.559C208.296 48.0492 208.033 48.4661 207.683 48.8136C207.319 49.1647 206.845 49.4537 206.247 49.6914C206.444 49.7755 206.597 49.9035 206.714 50.0937C206.834 50.2839 206.911 50.5217 206.954 50.8069L207.439 53.839H204.95L204.6 51.2897C204.541 50.8838 204.425 50.6058 204.243 50.4485C204.053 50.2985 203.75 50.2254 203.328 50.2254H203.189L203.065 50.2327L201.972 53.839H199.748M204.622 48.6161C205.023 48.6161 205.354 48.532 205.606 48.36C205.865 48.1881 206.043 47.9248 206.145 47.5773C206.251 47.2445 206.222 46.9885 206.065 46.8166C205.908 46.641 205.639 46.5605 205.245 46.5605H204.188L203.557 48.6197H204.618L204.622 48.6161Z" fill="black"/>
<path d="M220.234 53.8427L222.931 44.9841H226.19C227.396 44.9841 228.216 45.1963 228.661 45.6132C229.106 46.0338 229.193 46.6776 228.92 47.559C228.77 48.0492 228.523 48.4661 228.162 48.8136C227.804 49.1647 227.327 49.4537 226.736 49.6914C226.926 49.7755 227.079 49.9035 227.199 50.0937C227.316 50.2839 227.404 50.5217 227.44 50.8069L227.925 53.839H225.432L225.089 51.2897C225.023 50.8838 224.907 50.6058 224.721 50.4485C224.535 50.2985 224.236 50.2254 223.806 50.2254H223.667L223.54 50.2327L222.443 53.839H220.226M225.096 48.6161C225.497 48.6161 225.829 48.532 226.08 48.36C226.332 48.1881 226.51 47.9248 226.616 47.5773C226.722 47.2445 226.696 46.9885 226.543 46.8166C226.383 46.641 226.113 46.5605 225.719 46.5605H224.662L224.032 48.6197H225.096V48.6161Z" fill="black"/>
<path d="M231.796 53.8427L234.49 44.9841H240.391L239.892 46.6154H236.203L235.656 48.4222H239.177L238.681 50.0681H235.149L234.508 52.1822H238.306L237.803 53.8427H231.796Z" fill="black"/>
<path d="M246.887 48.2796L245.192 53.8427H243.001L245.706 44.9841H247.645L250.765 50.2693L252.38 44.9841H254.563L251.859 53.8427H250.131L246.887 48.2796Z" fill="black"/>
<path d="M259.007 53.8427L261.197 46.6373H258.278L258.781 44.9841H266.949L266.446 46.6373H263.53L261.328 53.8427H259.007Z" fill="black"/>
<path d="M267.85 53.8427L274.4 44.9841H276.948L277.691 53.8427H275.351L275.245 52.12H271.44L270.212 53.8427H267.857M272.544 50.6021H275.151L274.943 47.2372L272.544 50.6021Z" fill="black"/>
<path d="M281.347 53.8427L284.048 44.9841H286.254L284.078 52.1346H287.883L287.365 53.8427H281.347Z" fill="black"/>
</svg>
