<svg width="46" height="54" viewBox="0 0 46 54" fill="none" xmlns="http://www.w3.org/2000/svg">
<path d="M7.56237 15.8554C7.41656 16.0127 7.29263 16.309 7.29263 16.5284V33.1922C7.29263 33.4007 7.41657 33.4556 7.56602 33.3056L14.1382 26.744C14.2876 26.594 14.4042 26.2941 14.4042 26.0819V16.5284C14.4042 16.309 14.5318 16.0127 14.6776 15.8554L22.3506 7.7613C22.4927 7.60403 22.6166 7.30411 22.6166 7.09928V0.786362L22.3469 0.676636L7.55872 15.8518" fill="#009046"/>
<path d="M22.5839 16.1371H15.7529V22.6804H22.5839V16.1371Z" fill="#009046"/>
<path d="M39.0925 0.786377L32.6407 7.20537C32.4876 7.35533 32.3673 7.65525 32.3673 7.86739V15.7494C32.3673 15.9615 32.196 16.1371 31.9846 16.1371H31.4196C31.2082 16.1371 31.0368 15.9615 31.0368 15.7494V7.86739C31.0368 7.65525 30.9093 7.35533 30.7598 7.20537L24.3116 0.786377H23.9252V26.0783C23.9252 26.2904 24.0492 26.5904 24.1986 26.7403L30.7562 33.302C30.9056 33.4446 31.0332 33.3971 31.0332 33.1886V23.0901C31.0332 22.8743 31.2045 22.706 31.4159 22.706H31.9773C32.185 22.706 32.3637 22.8743 32.3637 23.0901V33.1886C32.3637 33.3971 32.4839 33.4519 32.637 33.302L39.2019 26.7403C39.355 26.5904 39.4825 26.2904 39.4825 26.0783V0.786377H39.0889" fill="#009046"/>
<path d="M46.0036 37.8153H0.782471V38.2432H46.0036V37.8153Z" fill="black"/>
<path d="M2.61932 48.7332L0.793121 53.1588H2.26941L2.54279 52.42H4.39814L4.65695 53.1588H6.32276L4.50021 48.7332H2.62297M2.92187 51.4507L3.49416 49.8999L4.04457 51.4507H2.92187Z" fill="black"/>
<path d="M8.37524 48.7332H6.86981V53.1551H10.0228V52.0762H8.37524V48.7332Z" fill="black"/>
<path d="M13.7627 50.3681H12.1698V48.7332H10.6644V53.1551H12.1698V51.4471H13.7627V53.1551H15.2681V48.7332H13.7627V50.3681Z" fill="black"/>
<path d="M17.539 48.7332L15.7165 53.1588H17.1927L17.4661 52.42H19.3215L19.5803 53.1588H21.2352L19.4199 48.7332H17.5427M17.8306 51.4507L18.4102 49.8999L18.9679 51.4507H17.8306Z" fill="black"/>
<path d="M25.6166 51.1874C25.4088 51.0191 25.1719 50.9313 24.9058 50.9204V50.9057C25.15 50.8362 25.3541 50.7229 25.5218 50.5583C25.6858 50.412 25.766 50.1815 25.766 49.8816C25.7806 49.1172 25.2593 48.7368 24.1986 48.7295H21.7054V53.1551H24.4027C24.7818 53.1551 25.0589 53.1295 25.2411 53.071L25.4853 52.9649L25.6603 52.8077C25.8389 52.6358 25.9227 52.3614 25.93 52.014C25.9227 51.6409 25.817 51.3593 25.6202 51.1837M23.2072 49.5451H23.6883L24.0054 49.5707L24.1986 49.6695C24.2825 49.7536 24.3189 49.878 24.3153 50.0316C24.3153 50.1779 24.2715 50.2949 24.1804 50.3864C24.0893 50.4741 23.9216 50.518 23.6919 50.518H23.2072V49.5451ZM24.2861 52.2334C24.1658 52.3212 23.969 52.3614 23.6919 52.3614H23.2072V51.3044H23.6919C23.969 51.3044 24.1694 51.3373 24.2861 51.4251C24.4027 51.5092 24.4574 51.6519 24.4574 51.8348C24.4574 52.0176 24.4064 52.1493 24.2861 52.2334Z" fill="black"/>
<path d="M26.3602 49.8048H27.5412V53.1551H29.0357V49.8048H30.2167V48.7332H26.3602V49.8048Z" fill="black"/>
<path d="M32.9833 48.6198C32.524 48.6198 32.1741 48.66 31.9153 48.7478C31.6528 48.8282 31.4414 48.9489 31.2737 49.1062C30.8254 49.4683 30.5958 50.0791 30.5848 50.9423C30.5812 51.6153 30.7561 52.1676 31.1207 52.6028C31.4961 53.0417 32.1158 53.2648 32.9797 53.2721C33.8909 53.2648 34.5288 53.0015 34.9006 52.5077C35.2068 52.1529 35.3636 51.6299 35.3672 50.9496C35.3672 50.2657 35.1922 49.7134 34.8314 49.2854C34.4669 48.8465 33.8472 48.6271 32.9797 48.6198M32.9797 52.2627C32.7209 52.2627 32.5167 52.1566 32.3636 51.9371C32.2033 51.725 32.1194 51.3958 32.1194 50.946C32.1194 50.4961 32.2033 50.1523 32.3636 49.9401C32.5204 49.7243 32.7209 49.6183 32.9797 49.6183C33.5228 49.6183 33.8107 50.0572 33.829 50.946C33.8107 51.8347 33.5228 52.27 32.9797 52.2627Z" fill="black"/>
<path d="M38.4109 48.6198C37.9589 48.6198 37.6053 48.66 37.3465 48.7478C37.0877 48.8282 36.8654 48.9489 36.7086 49.1062C36.2566 49.4683 36.027 50.0791 36.0234 50.9423C36.0124 51.6153 36.1947 52.1676 36.5665 52.6028C36.9346 53.0417 37.5506 53.2648 38.4109 53.2721C39.3258 53.2648 39.9637 53.0015 40.3355 52.5077C40.649 52.1529 40.7984 51.6299 40.8057 50.9496C40.8057 50.2657 40.6344 49.7134 40.2699 49.2854C39.9018 48.8465 39.2821 48.6271 38.4109 48.6198ZM38.4109 52.2627C38.1594 52.2627 37.9589 52.1566 37.8022 51.9371C37.6345 51.725 37.5507 51.3958 37.5507 50.946C37.5507 50.4961 37.6345 50.1523 37.8022 49.9401C37.9589 49.7243 38.1594 49.6183 38.4109 49.6183C38.9649 49.6183 39.2566 50.0572 39.2748 50.946C39.2566 51.8347 38.9649 52.27 38.4109 52.2627Z" fill="black"/>
<path d="M45.7886 51.6738C45.7594 51.447 45.6719 51.2934 45.5516 51.1983C45.4241 51.1069 45.2746 51.063 45.096 51.063V51.0008C45.3257 50.9533 45.5115 50.8362 45.6501 50.657C45.7995 50.4814 45.8688 50.24 45.8688 49.9584C45.8688 49.4683 45.7266 49.1501 45.435 48.9709C45.158 48.8026 44.7534 48.7258 44.254 48.7331H41.655V53.1588H43.1605V51.5531H43.6307C43.8931 51.5494 44.0572 51.5824 44.141 51.6555C44.2285 51.7287 44.2795 51.9115 44.2977 52.1712L44.4326 53.1588H45.9818L45.7922 51.6775M44.2285 50.5765C44.1155 50.6643 43.966 50.6936 43.7838 50.6936H43.1641V49.6219H43.7546C44.1774 49.6219 44.3961 49.7902 44.3961 50.1523C44.3961 50.3571 44.3378 50.4961 44.2321 50.5729" fill="black"/>
<path d="M3.69855 46.9592C3.93549 46.7983 4.05577 46.5715 4.08129 46.2789V42.636H2.5868V45.8656C2.5868 46.0302 2.45921 46.1143 2.29518 46.1143L0.782471 46.1216V47.1933H2.70345C3.08254 47.1933 3.45068 47.1201 3.69491 46.9629" fill="black"/>
<path d="M45.9964 41.0084H44.4873V45.456H45.9964V41.0084Z" fill="black"/>
<path d="M8.33513 46.3777V45.456H42.5372C43.5323 45.456 43.8458 45.1414 43.8458 44.5014V41.0048H42.3367V44.0332L42.2273 44.3551H40.1533V43.3931C40.1533 42.8372 39.745 42.5629 38.9321 42.5556H36.5665V43.6345H38.6551C38.8046 43.6345 38.9212 43.7516 38.9212 43.9052V44.3551H30.8254V42.6324H29.32V44.3551H20.7321V42.6324H19.2231V44.3551H8.33148C8.33877 44.1685 8.33877 42.6763 8.33148 42.6324H5.97676C5.61225 42.6104 5.30605 42.7092 5.08005 42.9103C4.85406 43.1298 4.74105 43.6162 4.73376 44.132C4.74105 44.6038 4.85042 44.9476 5.06548 45.1488C5.28419 45.3499 5.56122 45.4487 5.9075 45.456H7.09946V45.8693C7.09946 46.0193 6.97915 46.1107 6.8297 46.1107H4.73741V47.1897H7.10673C7.91959 47.2043 8.33513 46.93 8.33513 46.3777ZM7.10673 44.6184H6.82242C6.5782 44.6184 6.39959 44.5782 6.29388 44.5014C6.19546 44.4209 6.14807 44.2746 6.14807 44.0881C6.14807 43.9235 6.18817 43.7955 6.26471 43.7077C6.34491 43.6199 6.48343 43.5833 6.68391 43.5833H7.10308V44.6184H7.10673Z" fill="black"/>
<path d="M30.8218 45.957H29.3163V47.0762H30.8218V45.957Z" fill="black"/>
<path d="M19.7152 41.0194H18.2061V42.135H19.7152V41.0194Z" fill="black"/>
<path d="M21.7163 41.0194H20.2072V42.135H21.7163V41.0194Z" fill="black"/>
</svg>
