<svg width="24" height="24" viewBox="0 0 24 24" fill="none" xmlns="http://www.w3.org/2000/svg">
<g clip-path="url(#clip0_573_62)">
<path d="M0 18.517V18.0008C0.109785 17.5418 0.337039 17.1618 0.694936 16.8423C2.22423 15.4773 2.98834 13.7609 2.99822 11.7106C3.00261 10.7739 2.99163 9.8361 3.00151 8.89938C3.03115 6.01345 4.89529 3.39547 7.61356 2.43569C8.05928 2.27865 8.52257 2.17433 8.99794 2.03926C8.99794 1.78449 9.01331 1.51105 8.99465 1.23981C8.95403 0.622649 9.20104 0.202059 9.79498 0H10.2165C10.8171 0.217433 11.0509 0.658888 11.0026 1.27714C10.9927 1.40124 11.0147 1.52862 10.9971 1.65161C10.9806 1.77021 10.9576 1.90089 10.8939 1.99643C10.1496 3.10556 9.66763 4.31462 9.55126 5.64887C9.28997 8.65669 10.367 11.0979 12.757 12.9307C14.1029 13.9629 15.6542 14.4637 17.3536 14.4988C17.4448 14.501 17.5853 14.5472 17.6171 14.613C18.0563 15.5399 18.6897 16.3064 19.445 16.9916C19.9479 17.4474 20.1026 18.0426 19.9292 18.7025C19.7129 19.525 19.0301 20.0038 18.0991 20.0049C12.7021 20.0049 7.30506 20.0049 1.90915 20.0049C1.83889 20.0049 1.76863 20.0049 1.69837 20.0005C0.909016 19.9511 0.289831 19.469 0.0713599 18.7377C0.049403 18.6641 0.0241526 18.5905 0.00109785 18.517H0Z" fill="black"/>
<path d="M6.34445 21.0109H13.6451C13.4695 22.2638 12.208 23.9363 10.1013 23.9989C8.09332 24.0582 6.59586 22.5351 6.34445 21.0109Z" fill="black"/>
<path d="M18.0431 0C18.536 0.108717 19.041 0.1779 19.5197 0.33164C22.3159 1.23322 24.1768 3.9709 23.9868 6.8733C23.7925 9.84708 21.6517 12.3069 18.7578 12.8791C15.1415 13.5951 11.6547 11.1484 11.0707 7.48717C10.4932 3.86767 13.1423 0.417296 16.7861 0.0417296C16.8464 0.0351407 16.9057 0.0142759 16.9661 0C17.3251 0 17.6852 0 18.0442 0H18.0431ZM17.0001 5.49513C17.0001 5.62361 17.0001 5.70927 17.0001 5.79382C17.0001 6.77008 16.9968 7.74523 17.0023 8.72148C17.0045 9.16733 17.3207 9.49458 17.7357 9.50226C18.1331 9.50995 18.4888 9.19039 18.4932 8.76541C18.5064 7.42237 18.5042 6.08044 18.4932 4.73741C18.4899 4.34207 18.2144 4.03569 17.8312 4.01153C17.3569 3.98298 16.8783 3.98078 16.4051 4.01263C16 4.04008 15.7277 4.39259 15.7464 4.78682C15.7651 5.17447 16.0769 5.47756 16.4809 5.49293C16.6422 5.49952 16.8047 5.49293 16.999 5.49293L17.0001 5.49513Z" fill="#009046"/>
<path d="M17.0001 5.49508C16.8058 5.49508 16.6444 5.50057 16.4819 5.49508C16.0779 5.47971 15.7661 5.17662 15.7475 4.78897C15.7288 4.39583 16.0011 4.04223 16.4062 4.01478C16.8794 3.98293 17.358 3.98513 17.8323 4.01368C18.2154 4.03674 18.491 4.34422 18.4943 4.73955C18.5053 6.08259 18.5064 7.42452 18.4943 8.76756C18.4899 9.19254 18.1342 9.5121 17.7368 9.50441C17.3207 9.49673 17.0056 9.16948 17.0034 8.72363C16.9979 7.74738 17.0012 6.77222 17.0012 5.79597C17.0012 5.71032 17.0012 5.62576 17.0012 5.49728L17.0001 5.49508Z" fill="#009046"/>
<path d="M17.8808 3.54203V8.18176H16.8841V4.67569L15.8077 5.00369V4.23305L17.7821 3.54203H17.8808Z" fill="white"/>
</g>
<defs>
<clipPath id="clip0_573_62">
<rect width="24" height="24" fill="white"/>
</clipPath>
</defs>
</svg>
