<svg width="26" height="26" viewBox="0 0 26 26" fill="none" xmlns="http://www.w3.org/2000/svg">
<path d="M11.7939 3.64718C13.3583 3.64575 14.888 4.10835 16.1895 4.97646C17.491 5.84457 18.5057 7.07919 19.1054 8.52412C19.7051 9.96905 19.8627 11.5594 19.5584 13.0939C19.254 14.6285 18.5014 16.0383 17.3957 17.145C16.29 18.2517 14.8809 19.0056 13.3466 19.3114C11.8123 19.6171 10.2219 19.4609 8.77639 18.8626C7.33091 18.2642 6.09537 17.2506 5.22607 15.9499C4.35678 14.6492 3.89278 13.1199 3.89278 11.5555C3.90226 9.46227 4.73751 7.45735 6.217 5.9765C7.69649 4.49566 9.70065 3.65858 11.7939 3.64718ZM11.7939 2.16663C9.93694 2.16663 8.1217 2.71727 6.5777 3.74894C5.03371 4.7806 3.83031 6.24695 3.11969 7.96254C2.40906 9.67814 2.22313 11.5659 2.5854 13.3872C2.94768 15.2085 3.84188 16.8814 5.15494 18.1945C6.468 19.5075 8.14094 20.4017 9.96221 20.764C11.7835 21.1263 13.6713 20.9403 15.3869 20.2297C17.1025 19.5191 18.5688 18.3157 19.6005 16.7717C20.6321 15.2277 21.1828 13.4125 21.1828 11.5555C21.1828 9.06543 20.1936 6.67733 18.4328 4.91657C16.6721 3.15581 14.284 2.16663 11.7939 2.16663Z" fill="#E21E26"/>
<path d="M25.2778 24.0427L19.955 18.6838L18.9294 19.7022L24.2522 25.0611C24.3191 25.1284 24.3986 25.1819 24.4861 25.2185C24.5736 25.2552 24.6675 25.2742 24.7624 25.2745C24.8573 25.2749 24.9514 25.2565 25.0392 25.2205C25.127 25.1845 25.2068 25.1315 25.2742 25.0647C25.3415 24.9978 25.395 24.9183 25.4316 24.8308C25.4683 24.7432 25.4873 24.6493 25.4876 24.5544C25.488 24.4595 25.4696 24.3655 25.4336 24.2777C25.3976 24.1899 25.3446 24.1101 25.2778 24.0427Z" fill="#E21E26"/>
</svg>
