<svg width="24" height="24" viewBox="0 0 24 24" fill="none" xmlns="http://www.w3.org/2000/svg">
<path d="M6.54577 12.5624H11.1412V17.1578C11.1412 17.6249 11.5254 18.0166 12 18.0166C12.4746 18.0166 12.8588 17.6249 12.8588 17.1578V12.5624H17.4542C17.9213 12.5624 18.3131 12.1782 18.3131 11.7036C18.3131 11.229 17.9213 10.8447 17.4542 10.8447H12.8588V6.24932C12.8588 5.78224 12.4746 5.3905 12 5.3905C11.5254 5.3905 11.1412 5.78224 11.1412 6.24932V10.8447H6.54577C6.07869 10.8447 5.68695 11.229 5.68695 11.7036C5.68695 12.1782 6.07869 12.5624 6.54577 12.5624Z" fill="black"/>
</svg>
