<svg width="110" height="32" viewBox="0 0 110 32" fill="none" xmlns="http://www.w3.org/2000/svg">
<rect x="0.5" y="0.5" width="108.867" height="31" rx="15.5" fill="black" stroke="white"/>
<path d="M28.6491 16.0433C28.63 13.7523 30.412 12.6374 30.4931 12.5858C29.4838 11.0202 27.9192 10.8056 27.3695 10.7888C26.0549 10.6413 24.781 11.6256 24.1119 11.6256C23.4428 11.6256 22.3986 10.8032 21.2868 10.8272C19.8574 10.8511 18.5203 11.7311 17.7859 13.0989C16.2719 15.8874 17.4006 19.985 18.8515 22.2388C19.5769 23.3429 20.4251 24.5753 21.5346 24.5321C22.6205 24.4854 23.026 23.7961 24.336 23.7961C25.6461 23.7961 26.0144 24.5321 27.1465 24.5046C28.3112 24.4854 29.0456 23.3956 29.7451 22.2819C30.5832 21.0172 30.92 19.7704 30.9335 19.7069C30.9065 19.6973 28.6716 18.7886 28.6491 16.0433ZM26.5111 9.30585C27.0946 8.52902 27.4945 7.47165 27.3841 6.3999C26.5393 6.43946 25.4827 7.02209 24.8733 7.78215C24.3349 8.45229 23.8539 9.54922 23.9778 10.5814C24.9274 10.6569 25.9018 10.0719 26.5111 9.30705V9.30585Z" fill="white"/>
<path d="M45.1495 24.0436H43.5694L42.7037 21.4069H39.6959L38.8713 24.0436H37.3334L40.3141 15.0687H42.1547L45.1495 24.0436ZM42.4432 20.3012L41.6608 17.958C41.5775 17.7191 41.4227 17.1549 41.1939 16.2676H41.1658C41.0743 16.6498 40.9277 17.2129 40.7259 17.958L39.9564 20.3012H42.4432ZM52.8013 20.7278C52.8013 21.8289 52.4928 22.6979 51.8758 23.3372C51.3233 23.906 50.637 24.1892 49.8182 24.1892C48.9337 24.1892 48.298 23.8832 47.912 23.2712V26.6667H46.4293V19.6972C46.4293 19.0056 46.4105 18.2969 46.3741 17.5701H47.6786L47.7619 18.5961H47.79C48.285 17.8237 49.0358 17.437 50.0423 17.437C50.8294 17.437 51.4875 17.7384 52.013 18.3424C52.5385 18.9476 52.8025 19.7416 52.8025 20.7278H52.8013ZM51.2904 20.7801C51.2904 20.1499 51.1438 19.6312 50.8505 19.2217C50.5303 18.7963 50.0986 18.5836 49.559 18.5836C49.193 18.5836 48.861 18.7019 48.5631 18.9362C48.2651 19.1728 48.0704 19.4799 47.9789 19.8621C47.9378 20.0055 47.9155 20.1522 47.9097 20.3001V21.3796C47.9097 21.8494 48.0586 22.2464 48.3566 22.5717C48.6546 22.8959 49.0417 23.0574 49.5168 23.0574C50.0751 23.0574 50.5103 22.8481 50.8212 22.4318C51.1332 22.0143 51.2892 21.4637 51.2892 20.7801H51.2904ZM60.4801 20.7278C60.4801 21.8289 60.1716 22.6979 59.5546 23.3372C59.0021 23.906 58.3158 24.1892 57.4959 24.1892C56.6114 24.1892 55.9756 23.8832 55.5897 23.2712V26.6667H54.1069V19.6972C54.1069 19.0056 54.0881 18.2969 54.0518 17.5701H55.3562L55.4395 18.5961H55.4677C55.9615 17.8237 56.7123 17.437 57.7199 17.437C58.507 17.437 59.1639 17.7384 59.6918 18.3424C60.2162 18.9476 60.4813 19.7416 60.4813 20.7278H60.4801ZM58.9681 20.7801C58.9681 20.1499 58.8214 19.6312 58.5282 19.2217C58.2079 18.7963 57.7786 18.5836 57.2378 18.5836C56.8718 18.5836 56.5398 18.7019 56.2407 18.9362C55.9427 19.1728 55.7492 19.4799 55.6577 19.8621C55.6119 20.0407 55.5885 20.1852 55.5885 20.3001V21.3796C55.5885 21.8494 55.7386 22.2464 56.0342 22.5717C56.3322 22.8947 56.7193 23.0574 57.1956 23.0574C57.7551 23.0574 58.1891 22.8481 58.5 22.4318C58.812 22.0143 58.9681 21.4637 58.9681 20.7801ZM69.0645 21.5252C69.0645 22.2896 68.7889 22.9107 68.241 23.3895C67.6381 23.9128 66.797 24.1756 65.719 24.1756C64.723 24.1756 63.9242 23.989 63.3213 23.6159L63.6638 22.417C64.3148 22.7901 65.0292 22.9766 65.807 22.9766C66.3665 22.9766 66.8005 22.8538 67.1114 22.6104C67.4222 22.3658 67.5794 22.0393 67.5794 21.6321C67.5794 21.267 67.4492 20.9621 67.1935 20.713C66.9366 20.465 66.512 20.233 65.916 20.0214C64.2949 19.4356 63.4843 18.5779 63.4843 17.4506C63.4843 16.7147 63.7705 16.1107 64.343 15.6397C64.9154 15.1688 65.6732 14.9333 66.6164 14.9333C67.4586 14.9333 68.1613 15.0755 68.7185 15.3599L68.3466 16.5315C67.8223 16.2563 67.2299 16.1186 66.5683 16.1186C66.0451 16.1186 65.6345 16.2438 65.3412 16.4917C65.0937 16.7135 64.9694 16.9843 64.9694 17.305C64.9694 17.6588 65.1125 17.9534 65.3964 18.1843C65.6427 18.397 66.092 18.628 66.7419 18.8759C67.5396 19.1876 68.1249 19.5505 68.5003 19.9668C68.878 20.3831 69.0657 20.9041 69.0657 21.5229L69.0645 21.5252ZM73.9808 18.6496H72.3456V21.7913C72.3456 22.591 72.6341 22.9891 73.2113 22.9891C73.4764 22.9891 73.6957 22.9675 73.8705 22.922L73.9116 24.014C73.6195 24.1198 73.2347 24.1733 72.7585 24.1733C72.1731 24.1733 71.7144 24.0004 71.3848 23.6534C71.0552 23.3065 70.8898 22.7264 70.8898 21.9085V18.6462H69.9162V17.5667H70.8898V16.3814L72.3467 15.9548V17.5655H73.982V18.6473L73.9808 18.6496ZM81.3429 20.7528C81.3429 21.7481 81.0496 22.5648 80.4631 23.203C79.8507 23.8605 79.0343 24.1881 78.0184 24.1881C77.0026 24.1881 76.2577 23.873 75.6758 23.2439C75.094 22.6138 74.8031 21.8186 74.8031 20.8609C74.8031 19.9031 75.1034 19.0363 75.7028 18.3982C76.3034 17.7589 77.1117 17.4393 78.1275 17.4393C79.1434 17.4393 79.8942 17.7544 80.4889 18.3845C81.0578 18.9954 81.3417 19.7848 81.3417 20.7528H81.3429ZM79.805 20.7858C79.805 20.1932 79.6724 19.6847 79.4073 19.2593C79.0965 18.7451 78.6507 18.488 78.0747 18.488C77.4988 18.488 77.0249 18.7451 76.7152 19.2593C76.4489 19.6847 76.3175 20.2023 76.3175 20.8131C76.3175 21.4239 76.4501 21.9165 76.7152 22.3408C77.0354 22.8549 77.4835 23.112 78.063 23.112C78.6425 23.112 79.0742 22.8492 79.3956 22.3283C79.6678 21.8926 79.805 21.3807 79.805 20.7869V20.7858ZM86.1653 18.835C86.0105 18.8077 85.8544 18.7952 85.6972 18.7952C85.1752 18.7952 84.7717 18.9851 84.4878 19.3685C84.2415 19.7052 84.1171 20.1317 84.1171 20.647V24.0425H82.6344V19.6085C82.6356 18.9294 82.6215 18.2503 82.591 17.5712H83.8825L83.9365 18.81H83.9776C84.1347 18.3845 84.3811 18.041 84.7189 17.7839C85.0286 17.5598 85.404 17.4381 85.7911 17.437C85.9283 17.437 86.0515 17.4461 86.1618 17.4632V18.835H86.163H86.1653ZM92.7989 20.5003C92.8024 20.7187 92.7848 20.9371 92.745 21.1521H88.2956C88.312 21.7913 88.5278 22.2816 88.9407 22.6183C89.3161 22.9186 89.8006 23.0699 90.3965 23.0699C91.0558 23.0699 91.6564 22.9687 92.1971 22.7639L92.4294 23.7615C91.7971 24.0288 91.0522 24.1619 90.1912 24.1619C89.1566 24.1619 88.3437 23.8662 87.7524 23.2769C87.1624 22.6866 86.8668 21.8937 86.8668 20.9007C86.8668 19.9076 87.1413 19.1125 87.6914 18.4642C88.2674 17.7726 89.0463 17.4268 90.0258 17.4268C91.0053 17.4268 91.7162 17.7726 92.2112 18.4642C92.603 19.0124 92.8001 19.6927 92.8001 20.4991L92.7989 20.5003ZM91.3842 20.1272C91.3948 19.7006 91.2974 19.3332 91.0956 19.0215C90.8387 18.6211 90.4434 18.4209 89.9144 18.4209C89.4299 18.4209 89.0346 18.6154 88.7343 19.0067C88.4868 19.3173 88.3401 19.6915 88.2956 20.1249H91.3842V20.126V20.1272Z" fill="white"/>
<path d="M39.454 11.7034C39.0457 11.7034 38.6931 11.6859 38.3997 11.656V7.72807C38.8103 7.67144 39.2255 7.64364 39.6407 7.64467C41.3225 7.64467 42.0973 8.37878 42.0973 9.57621C42.0973 10.9569 41.1822 11.7034 39.454 11.7034ZM39.6999 8.14815C39.4725 8.14815 39.28 8.1605 39.1188 8.18933V11.1752C39.2058 11.1875 39.3716 11.1927 39.6059 11.1927C40.7078 11.1927 41.3353 10.6357 41.3353 9.59371C41.3353 8.66398 40.7681 8.14815 39.6999 8.14815ZM44.511 11.7332C43.5634 11.7332 42.9487 11.1052 42.9487 10.2527C42.9487 9.40014 43.5762 8.72987 44.5644 8.72987C45.4981 8.72987 46.1267 9.32807 46.1267 10.2053C46.1267 11.0825 45.4795 11.7332 44.511 11.7332ZM44.5389 9.19731C44.0181 9.19731 43.684 9.62974 43.684 10.2341C43.684 10.8385 44.025 11.2596 44.5319 11.2596C45.0388 11.2596 45.3798 10.7973 45.3798 10.2228C45.3798 9.64828 45.0457 9.19834 44.5389 9.19834V9.19731ZM51.5329 8.78856L50.518 11.6673H49.8569L49.437 10.4174C49.3326 10.1116 49.2456 9.80169 49.176 9.48766H49.1621C49.1088 9.80169 49.009 10.1157 48.9023 10.4174L48.4558 11.6673H47.7877L46.8331 8.78856H47.5743L47.9419 10.1569C48.0289 10.4833 48.102 10.7901 48.1623 11.0815H48.1762C48.2296 10.8395 48.3154 10.5368 48.443 10.1631L48.9035 8.78856H49.4904L49.9311 10.1332C50.0378 10.4596 50.1248 10.7788 50.1921 11.0815H50.2118C50.2582 10.785 50.3324 10.4709 50.4322 10.1332L50.8265 8.78856H51.5341H51.5329ZM55.2677 11.6673H54.5462V10.0138C54.5462 9.50516 54.3259 9.24982 53.8921 9.24982C53.4583 9.24982 53.1706 9.57621 53.1706 9.9551V11.6673H52.4492V9.61121C52.4492 9.3569 52.4422 9.08406 52.4225 8.78753H53.057L53.0906 9.23232H53.1103C53.304 8.92447 53.6972 8.72884 54.1391 8.72884C54.82 8.72884 55.2677 9.19113 55.2677 9.94274V11.6663V11.6673ZM57.2557 11.6673H56.5343V7.46758H57.2557V11.6673ZM59.884 11.7322C58.9364 11.7322 58.3216 11.1041 58.3216 10.2516C58.3216 9.39911 58.9491 8.72884 59.9373 8.72884C60.8722 8.72884 61.4997 9.32704 61.4997 10.2043C61.4997 11.1041 60.8525 11.7322 59.884 11.7322ZM59.9106 9.19628C59.3899 9.19628 59.0558 9.62872 59.0558 10.2331C59.0558 10.8375 59.3968 11.2586 59.9025 11.2586C60.4082 11.2586 60.7504 10.7963 60.7504 10.2218C60.7504 9.63592 60.4187 9.19731 59.9106 9.19731V9.19628ZM64.3414 11.6673L64.2892 11.3358H64.2694C64.0491 11.6025 63.7278 11.7322 63.3207 11.7322C62.7396 11.7322 62.3267 11.3708 62.3267 10.8848C62.3267 10.1744 63.0203 9.80684 64.2231 9.80684V9.7533C64.2231 9.3744 63.9969 9.18393 63.5492 9.18393C63.229 9.18393 62.9484 9.25497 62.7013 9.39808L62.5552 8.97698C62.8556 8.81121 63.229 8.72781 63.6686 8.72781C64.5165 8.72781 64.9445 9.12421 64.9445 9.91906V10.9796C64.9445 11.2699 64.9584 11.4954 64.9909 11.6673H64.3414ZM64.2428 10.2331C63.4425 10.2331 63.04 10.405 63.04 10.8138C63.04 11.1155 63.2476 11.2637 63.5341 11.2637C63.9006 11.2637 64.2416 11.0156 64.2416 10.6779V10.2331H64.2428ZM68.4461 11.6673L68.4125 11.205H68.3928C68.1852 11.5541 67.8372 11.7322 67.3512 11.7322C66.5695 11.7322 65.9895 11.1216 65.9895 10.2629C65.9895 9.40426 66.5904 8.72781 67.4104 8.72781C67.8442 8.72781 68.1515 8.85754 68.3255 9.11906H68.3394V7.46655H69.0609V10.891C69.0609 11.169 69.069 11.4305 69.0876 11.6673H68.4461ZM68.3394 9.97363C68.3394 9.57106 68.039 9.22717 67.5797 9.22717C67.045 9.22717 66.7179 9.64828 66.7179 10.2403C66.7179 10.8323 67.0566 11.2184 67.5646 11.2184C68.0182 11.2184 68.3383 10.8684 68.3383 10.4545V9.97466L68.3394 9.97363ZM73.6366 11.7332C72.689 11.7332 72.0754 11.1052 72.0754 10.2527C72.0754 9.40014 72.7029 8.72987 73.6911 8.72987C74.6259 8.72987 75.2534 9.32807 75.2534 10.2053C75.2534 11.1052 74.6074 11.7332 73.6377 11.7332H73.6366ZM73.6632 9.19731C73.1436 9.19731 72.8096 9.62974 72.8096 10.2341C72.8096 10.8385 73.1506 11.2596 73.6563 11.2596C74.162 11.2596 74.5042 10.7973 74.5042 10.2228C74.5053 9.63695 74.1724 9.19834 73.6632 9.19834V9.19731ZM79.1297 11.6684H78.4083V10.0148C78.4083 9.50619 78.1879 9.25085 77.7541 9.25085C77.3203 9.25085 77.0338 9.57723 77.0338 9.95613V11.6684H76.3124V9.61224C76.3124 9.35793 76.3054 9.08509 76.2857 8.78856H76.9202L76.9538 9.23335H76.9735C77.1672 8.9255 77.5604 8.72987 78.0012 8.72987C78.682 8.72987 79.1297 9.19216 79.1297 9.94377V11.6684ZM83.9803 9.26938H83.187V10.6676C83.187 11.0238 83.3261 11.2009 83.6068 11.2009C83.7344 11.2009 83.8411 11.1886 83.927 11.1711L83.9467 11.657C83.8075 11.7044 83.6196 11.7281 83.3876 11.7281C82.8193 11.7281 82.4794 11.4501 82.4794 10.7211V9.26938H82.0062V8.78959H82.4794V8.26243L83.187 8.07299V8.78959H83.9803V9.27041V9.26938ZM87.7963 11.6684H87.076V10.0272C87.076 9.51237 86.8568 9.25085 86.4218 9.25085C86.0484 9.25085 85.7004 9.47633 85.7004 9.93245V11.6684H84.9801V7.46861H85.7004V9.19834H85.7143C85.9417 8.88431 86.2699 8.72987 86.6898 8.72987C87.3764 8.72987 87.7963 9.20349 87.7963 9.95613V11.6684ZM91.7062 10.3824H89.5431C89.557 10.927 89.9629 11.2349 90.5649 11.2349C90.885 11.2349 91.1796 11.1875 91.4394 11.099L91.552 11.5438C91.2446 11.6622 90.8839 11.7219 90.464 11.7219C89.4491 11.7219 88.8483 11.1525 88.8483 10.2712C88.8483 9.38985 89.463 8.72473 90.3828 8.72473C91.2121 8.72473 91.7317 9.26938 91.7317 10.0931C91.7364 10.1898 91.7283 10.2877 91.7074 10.3834L91.7062 10.3824ZM91.0451 9.92627C91.0451 9.48148 90.7922 9.16848 90.3318 9.16848C89.9177 9.16848 89.5906 9.48869 89.5431 9.92627H91.0451Z" fill="white"/>
</svg>
