<svg width="64" height="64" viewBox="0 0 64 64" fill="none" xmlns="http://www.w3.org/2000/svg">
<g filter="url(#filter0_d_1_743)">
<path d="M36.0308 30.4573C37.8277 30.4573 39.4348 29.0658 39.4348 27.0648C39.4348 24.6728 37.9197 23.5285 36.0998 23.5285C34.415 23.5285 32.7418 24.6411 32.7418 27.0073C32.7418 29.3561 34.3029 30.4573 36.0308 30.4573Z" fill="url(#paint0_linear_1_743)"/>
<path d="M19.0625 1C19.4437 1 19.8094 1.15145 20.079 1.42103C20.3485 1.69062 20.5 2.05625 20.5 2.4375V3.875H43.5V2.4375C43.5 2.05625 43.6515 1.69062 43.921 1.42103C44.1906 1.15145 44.5563 1 44.9375 1C45.3187 1 45.6844 1.15145 45.954 1.42103C46.2235 1.69062 46.375 2.05625 46.375 2.4375V3.875H49.25C50.775 3.875 52.2375 4.4808 53.3159 5.55914C54.3942 6.63747 55 8.10001 55 9.625V41.25C55 42.775 54.3942 44.2375 53.3159 45.3159C52.2375 46.3942 50.775 47 49.25 47H14.75C13.225 47 11.7625 46.3942 10.6841 45.3159C9.6058 44.2375 9 42.775 9 41.25V9.625C9 8.10001 9.6058 6.63747 10.6841 5.55914C11.7625 4.4808 13.225 3.875 14.75 3.875H17.625V2.4375C17.625 2.05625 17.7765 1.69062 18.046 1.42103C18.3156 1.15145 18.6813 1 19.0625 1ZM47.6803 9.625H16.3169C15.4544 9.625 14.75 10.269 14.75 11.0625V13.9375C14.75 14.731 15.4515 15.375 16.3169 15.375H47.6831C48.5456 15.375 49.25 14.731 49.25 13.9375V11.0625C49.25 10.269 48.5485 9.625 47.6803 9.625ZM35.841 37.7713C39.4578 37.7713 41.591 34.7036 41.591 29.5142C41.591 23.954 39.3456 21.8438 35.9761 21.8438C33.3139 21.8438 30.8097 23.7757 30.8097 27.0446C30.8097 30.3796 33.1788 32.1334 35.6283 32.1334C37.773 32.1334 39.1645 31.0524 39.6044 29.8621H39.682C39.6705 33.6456 38.3566 36.0836 35.9301 36.0836C34.0211 36.0836 33.0321 34.7899 32.9114 33.7261H30.9449C31.08 35.5661 32.6526 37.7684 35.841 37.7684V37.7713ZM27.5322 22.1456H25.7124C24.4081 22.8394 23.1474 23.6123 21.9375 24.46V26.4581C23.0156 25.7192 24.7234 24.6756 25.5542 24.2243H25.5888V37.478H27.5294V22.1427L27.5322 22.1456Z" fill="url(#paint1_linear_1_743)"/>
</g>
<defs>
<filter id="filter0_d_1_743" x="0" y="0" width="64" height="64" filterUnits="userSpaceOnUse" color-interpolation-filters="sRGB">
<feFlood flood-opacity="0" result="BackgroundImageFix"/>
<feColorMatrix in="SourceAlpha" type="matrix" values="0 0 0 0 0 0 0 0 0 0 0 0 0 0 0 0 0 0 127 0" result="hardAlpha"/>
<feOffset dy="8"/>
<feGaussianBlur stdDeviation="4.5"/>
<feComposite in2="hardAlpha" operator="out"/>
<feColorMatrix type="matrix" values="0 0 0 0 1 0 0 0 0 0 0 0 0 0 0.0116959 0 0 0 0.25 0"/>
<feBlend mode="normal" in2="BackgroundImageFix" result="effect1_dropShadow_1_743"/>
<feBlend mode="normal" in="SourceGraphic" in2="effect1_dropShadow_1_743" result="shape"/>
</filter>
<linearGradient id="paint0_linear_1_743" x1="36.0883" y1="23.5285" x2="35.9646" y2="33.7424" gradientUnits="userSpaceOnUse">
<stop stop-color="#FF0003"/>
<stop offset="1" stop-color="#FF0003" stop-opacity="0"/>
</linearGradient>
<linearGradient id="paint1_linear_1_743" x1="32" y1="1" x2="31.2069" y2="68.8103" gradientUnits="userSpaceOnUse">
<stop stop-color="#FF0003"/>
<stop offset="1" stop-color="#FF0003" stop-opacity="0"/>
</linearGradient>
</defs>
</svg>
