<svg width="16" height="15" viewBox="0 0 16 15" fill="none" xmlns="http://www.w3.org/2000/svg">
<path d="M0.84545 4.36618C0.879912 3.61313 0.997824 3.12746 1.15728 2.71519L1.15943 2.7095C1.31744 2.28999 1.56498 1.90995 1.88482 1.59584L1.88931 1.59143L1.89371 1.58694C2.20809 1.2667 2.58826 1.0194 3.0074 0.861804L3.01463 0.859039C3.42595 0.699082 3.91068 0.581608 4.66435 0.547152M0.84545 4.36618C0.809221 5.17078 0.799988 5.42019 0.799988 7.50632C0.799988 9.59297 0.808713 9.84178 0.845431 10.6466M0.84545 4.36618L0.845449 4.56914M1.16008 12.3035C1.31768 12.7227 1.56498 13.1028 1.88522 13.4172L1.8897 13.4216L1.8941 13.4261C2.20823 13.7459 2.58828 13.9935 3.0078 14.1515L3.01406 14.1539C3.42575 14.3135 3.91072 14.431 4.66435 14.4655M1.16008 12.3035L1.15732 12.2963C0.997361 11.885 0.879887 11.4002 0.845431 10.6466M1.16008 12.3035L1.15063 12.2538M0.845431 10.6466L0.857771 10.7116M0.845431 10.6466L0.845432 10.4431M1.15063 12.2538L0.857771 10.7116M1.15063 12.2538C1.02625 11.9252 0.898173 11.4667 0.857771 10.7116M1.15063 12.2538C1.155 12.2653 1.15936 12.2767 1.16371 12.2879C1.32145 12.7131 1.57138 13.0982 1.89554 13.4153C2.2126 13.7394 2.59749 13.9893 3.02259 14.1471C3.36374 14.2799 3.84444 14.4188 4.66424 14.4564C5.49156 14.494 5.74716 14.5017 7.8046 14.5017C9.86205 14.5017 10.1179 14.494 10.9452 14.4564C11.766 14.4187 12.2461 14.2791 12.5861 14.1473C13.0114 13.9896 13.3965 13.7396 13.7137 13.4153C14.0377 13.0983 14.2876 12.7134 14.4453 12.2883C14.5782 11.9472 14.7171 11.4665 14.7547 10.6467C14.7923 9.81937 14.8 9.56325 14.8 7.50632C14.8 5.44939 14.7923 5.19306 14.7546 4.36574C14.7168 3.54064 14.5759 3.05979 14.4435 2.71954C14.2703 2.27251 14.0507 1.9344 13.7131 1.59686C13.3763 1.26065 13.0391 1.04092 12.5917 0.867584C12.2503 0.734085 11.7691 0.59404 10.9452 0.556283C10.8735 0.553022 10.8062 0.549986 10.7416 0.54716M0.857771 10.7116C0.856631 10.6902 0.85556 10.6687 0.854562 10.6469C0.851298 10.5752 0.84826 10.5078 0.845432 10.4431M4.66435 0.547152C5.46914 0.510434 5.71847 0.501709 7.8046 0.501709C9.89072 0.501709 10.1399 0.510932 10.9445 0.547161M4.66435 0.547152L4.86783 0.547153M10.9445 0.547161L10.7416 0.54716M10.9445 0.547161C11.6977 0.581609 12.1834 0.699504 12.5957 0.858979L12.6014 0.861149C13.0209 1.01917 13.401 1.26671 13.7151 1.58654L13.7195 1.59098L13.7239 1.59534C14.0438 1.90949 14.2913 2.28963 14.4492 2.70925L14.4519 2.71635C14.6118 3.12767 14.7293 3.6124 14.7638 4.36608M4.86783 0.547153L10.7416 0.54716M4.86783 0.547153C5.54931 0.517355 5.92597 0.510941 7.8046 0.510941C9.6834 0.510941 10.06 0.517356 10.7416 0.54716M4.86783 0.547153C4.80316 0.549981 4.73573 0.553019 4.66402 0.556283C3.8432 0.5939 3.36306 0.733548 3.02312 0.865398C2.59619 1.02366 2.2098 1.27492 1.89195 1.60098C1.55756 1.93675 1.33868 2.27324 1.16589 2.71916C1.03238 3.06062 0.892311 3.54202 0.854552 4.36596C0.851299 4.43744 0.848269 4.50466 0.845449 4.56914M14.7638 10.6466C14.7293 11.4002 14.6118 11.8852 14.4522 12.2969L14.4498 12.3031C14.2918 12.7227 14.0442 13.1027 13.7244 13.4168L13.7199 13.4212L13.7155 13.4257C13.4011 13.7459 13.021 13.9932 12.6018 14.1508L12.5946 14.1536C12.1833 14.3136 11.6985 14.431 10.9449 14.4655M0.845432 10.4431C0.815634 9.76162 0.80922 9.38496 0.80922 7.50632C0.80922 5.62711 0.815629 5.25098 0.845449 4.56914M0.845432 10.4431L0.845449 4.56914M6.55879 10.514C6.95376 10.6776 7.37709 10.7618 7.80461 10.7618C8.66801 10.7618 9.49606 10.4188 10.1066 9.8083C10.7171 9.19778 11.0601 8.36973 11.0601 7.50632C11.0601 6.64292 10.7171 5.81487 10.1066 5.20435C9.49606 4.59383 8.66802 4.25084 7.80461 4.25084C7.37709 4.25084 6.95376 4.33504 6.55879 4.49865C6.16381 4.66225 5.80493 4.90205 5.50263 5.20435C5.20033 5.50665 4.96053 5.86553 4.79693 6.2605C4.63333 6.65548 4.54912 7.07881 4.54912 7.50632C4.54912 7.93384 4.63333 8.35717 4.79693 8.75215C4.96053 9.14712 5.20033 9.506 5.50263 9.8083C5.80493 10.1106 6.16381 10.3504 6.55879 10.514ZM5.49538 5.19709C6.10782 4.58465 6.93848 4.24058 7.80461 4.24058C8.67074 4.24058 9.50139 4.58465 10.1138 5.19709C10.7263 5.80954 11.0703 6.64019 11.0703 7.50632C11.0703 8.37245 10.7263 9.20311 10.1138 9.81555C9.50139 10.428 8.67074 10.7721 7.80461 10.7721C6.93848 10.7721 6.10782 10.428 5.49538 9.81555C4.88293 9.20311 4.53886 8.37245 4.53886 7.50632C4.53886 6.64019 4.88293 5.80954 5.49538 5.19709ZM12.9093 3.48024C12.9093 3.72814 12.8108 3.96589 12.6355 4.14119C12.4602 4.31648 12.2225 4.41496 11.9746 4.41496C11.7266 4.41496 11.4889 4.31648 11.3136 4.14119C11.1383 3.96589 11.0398 3.72814 11.0398 3.48024C11.0398 3.23234 11.1383 2.99459 11.3136 2.8193C11.4889 2.644 11.7266 2.54552 11.9746 2.54552C12.2225 2.54552 12.4602 2.644 12.6355 2.8193C12.8108 2.99459 12.9093 3.23234 12.9093 3.48024Z" stroke="black" stroke-width="0.8" stroke-linejoin="round"/>
</svg>
