<svg width="17" height="17" viewBox="0 0 17 17" fill="none" xmlns="http://www.w3.org/2000/svg">
<g clip-path="url(#clip0_551_118)">
<path d="M8.37705 1.49376C10.5934 1.49376 10.8559 1.50348 11.7275 1.54237C12.5376 1.57801 12.975 1.7141 13.2666 1.82751C13.6522 1.97656 13.9309 2.15802 14.2192 2.4464C14.5109 2.73802 14.6891 3.01345 14.8381 3.39904C14.9515 3.69066 15.0876 4.13134 15.1233 4.93816C15.1622 5.81304 15.1719 6.0755 15.1719 8.2886C15.1719 10.5049 15.1622 10.7674 15.1233 11.639C15.0876 12.4491 14.9515 12.8865 14.8381 13.1782C14.6891 13.5638 14.5076 13.8424 14.2192 14.1308C13.9276 14.4224 13.6522 14.6006 13.2666 14.7497C12.975 14.8631 12.5343 14.9992 11.7275 15.0348C10.8526 15.0737 10.5902 15.0834 8.37705 15.0834C6.16071 15.0834 5.89825 15.0737 5.02662 15.0348C4.21655 14.9992 3.77911 14.8631 3.48749 14.7497C3.1019 14.6006 2.82323 14.4192 2.53485 14.1308C2.24323 13.8392 2.06501 13.5638 1.91596 13.1782C1.80255 12.8865 1.66646 12.4459 1.63082 11.639C1.59193 10.7642 1.58221 10.5017 1.58221 8.2886C1.58221 6.07226 1.59193 5.8098 1.63082 4.93816C1.66646 4.1281 1.80255 3.69066 1.91596 3.39904C2.06501 3.01345 2.24647 2.73478 2.53485 2.4464C2.82647 2.15478 3.1019 1.97656 3.48749 1.82751C3.77911 1.7141 4.21979 1.57801 5.02662 1.54237C5.89825 1.50348 6.16071 1.49376 8.37705 1.49376ZM8.37705 0C6.12507 0 5.84316 0.00972079 4.95857 0.048604C4.07722 0.0874872 3.47129 0.230059 2.94636 0.434196C2.39876 0.648053 1.9354 0.929956 1.47528 1.39331C1.01193 1.85343 0.730023 2.31679 0.516166 2.86115C0.312029 3.38932 0.169457 3.99201 0.130574 4.87336C0.091691 5.76119 0.0819702 6.04309 0.0819702 8.29508C0.0819702 10.5471 0.091691 10.829 0.130574 11.7136C0.169457 12.5949 0.312029 13.2008 0.516166 13.7258C0.730023 14.2734 1.01193 14.7367 1.47528 15.1968C1.9354 15.657 2.39876 15.9421 2.94312 16.1527C3.47129 16.3569 4.07398 16.4994 4.95533 16.5383C5.83992 16.5772 6.12182 16.5869 8.37381 16.5869C10.6258 16.5869 10.9077 16.5772 11.7923 16.5383C12.6736 16.4994 13.2796 16.3569 13.8045 16.1527C14.3489 15.9421 14.8122 15.657 15.2723 15.1968C15.7325 14.7367 16.0176 14.2734 16.2282 13.729C16.4323 13.2008 16.5749 12.5982 16.6138 11.7168C16.6527 10.8322 16.6624 10.5503 16.6624 8.29832C16.6624 6.04634 16.6527 5.76443 16.6138 4.87984C16.5749 3.99849 16.4323 3.39256 16.2282 2.86763C16.0241 2.31679 15.7422 1.85343 15.2788 1.39331C14.8187 0.933196 14.3553 0.648053 13.811 0.437436C13.2828 0.233299 12.6801 0.0907274 11.7988 0.0518442C10.9109 0.0097208 10.629 0 8.37705 0Z" fill="white"/>
<path d="M8.37704 4.03418C6.02461 4.03418 4.11609 5.9427 4.11609 8.29513C4.11609 10.6476 6.02461 12.5561 8.37704 12.5561C10.7295 12.5561 12.638 10.6476 12.638 8.29513C12.638 5.9427 10.7295 4.03418 8.37704 4.03418ZM8.37704 11.0591C6.85087 11.0591 5.61309 9.82129 5.61309 8.29513C5.61309 6.76896 6.85087 5.53118 8.37704 5.53118C9.9032 5.53118 11.141 6.76896 11.141 8.29513C11.141 9.82129 9.9032 11.0591 8.37704 11.0591Z" fill="white"/>
<path d="M13.8012 3.86561C13.8012 4.41646 13.3541 4.86037 12.8065 4.86037C12.2556 4.86037 11.8117 4.41322 11.8117 3.86561C11.8117 3.31477 12.2589 2.87085 12.8065 2.87085C13.3541 2.87085 13.8012 3.31801 13.8012 3.86561Z" fill="white"/>
</g>
<defs>
<clipPath id="clip0_551_118">
<rect width="16.5902" height="16.5902" fill="white" transform="translate(0.0819702)"/>
</clipPath>
</defs>
</svg>
