<svg width="17" height="17" viewBox="0 0 17 17" fill="none" xmlns="http://www.w3.org/2000/svg">
<path d="M15.6079 0H1.47067C0.793454 0 0.24585 0.534644 0.24585 1.19566V15.3913C0.24585 16.0523 0.793454 16.5902 1.47067 16.5902H15.6079C16.2852 16.5902 16.836 16.0523 16.836 15.3945V1.19566C16.836 0.534644 16.2852 0 15.6079 0ZM5.16781 14.1373H2.70521V6.21807H5.16781V14.1373ZM3.93651 5.13906C3.14589 5.13906 2.50755 4.50073 2.50755 3.71334C2.50755 2.92596 3.14589 2.28763 3.93651 2.28763C4.7239 2.28763 5.36223 2.92596 5.36223 3.71334C5.36223 4.49749 4.7239 5.13906 3.93651 5.13906ZM14.3831 14.1373H11.9238V10.2878C11.9238 9.37085 11.9076 8.18815 10.6439 8.18815C9.36396 8.18815 9.16954 9.18939 9.16954 10.223V14.1373H6.71342V6.21807H9.07233V7.30032H9.10473C9.432 6.67819 10.2356 6.02041 11.4312 6.02041C13.923 6.02041 14.3831 7.65999 14.3831 9.79208V14.1373Z" fill="white"/>
</svg>
