<svg width="17" height="16" viewBox="0 0 17 16" fill="none" xmlns="http://www.w3.org/2000/svg">
<path d="M4.31967 5.66564H1.2459V15.5017H4.31967V5.66564ZM4.59631 2.2845C4.59793 2.05199 4.55374 1.82144 4.46626 1.60602C4.37878 1.39059 4.24972 1.1945 4.08645 1.02896C3.92319 0.863408 3.72891 0.731639 3.51472 0.641174C3.30053 0.550708 3.07062 0.503318 2.83811 0.501709H2.78279C2.30996 0.501709 1.8565 0.689538 1.52217 1.02388C1.18783 1.35821 1 1.81167 1 2.2845C1 2.75732 1.18783 3.21078 1.52217 3.54512C1.8565 3.87945 2.30996 4.06728 2.78279 4.06728C3.01531 4.073 3.24668 4.03285 3.46368 3.94912C3.68068 3.86539 3.87905 3.73973 4.04747 3.5793C4.21588 3.41888 4.35104 3.22685 4.44521 3.01417C4.53938 2.8015 4.59073 2.57235 4.59631 2.33982V2.2845ZM16 9.5263C16 6.56933 14.1189 5.41974 12.25 5.41974C11.6381 5.3891 11.0289 5.51943 10.483 5.79773C9.93724 6.07603 9.47393 6.49257 9.13934 7.00581H9.05328V5.66564H6.16393V15.5017H9.23771V10.2702C9.19327 9.73435 9.36205 9.20266 9.70737 8.79058C10.0527 8.3785 10.5467 8.11931 11.082 8.06933H11.1988C12.1762 8.06933 12.9016 8.68409 12.9016 10.2333V15.5017H15.9754L16 9.5263Z" stroke="black" stroke-width="0.7" stroke-linejoin="round"/>
</svg>
