<svg width="18" height="17" viewBox="0 0 18 17" fill="none" xmlns="http://www.w3.org/2000/svg">
<g clip-path="url(#clip0_1_2565)">
<path d="M16.1815 0H1.70894C1.01567 0 0.455078 0.547322 0.455078 1.22401V15.7562C0.455078 16.4329 1.01567 16.9836 1.70894 16.9836H16.1815C16.8747 16.9836 17.4386 16.4329 17.4386 15.7596V1.22401C17.4386 0.547322 16.8747 0 16.1815 0ZM5.49376 14.4725H2.97276V6.36552H5.49376V14.4725ZM4.23326 5.26092C3.42388 5.26092 2.77042 4.60745 2.77042 3.8014C2.77042 2.99534 3.42388 2.34187 4.23326 2.34187C5.03931 2.34187 5.69278 2.99534 5.69278 3.8014C5.69278 4.60414 5.03931 5.26092 4.23326 5.26092ZM14.9276 14.4725H12.4099V10.5318C12.4099 9.59306 12.3933 8.38232 11.0997 8.38232C9.7894 8.38232 9.59038 9.4073 9.59038 10.4655V14.4725H7.07601V6.36552H9.49086V7.47343H9.52403C9.85906 6.83655 10.6817 6.16318 11.9057 6.16318C14.4566 6.16318 14.9276 7.84163 14.9276 10.0243V14.4725Z" fill="black"/>
</g>
<defs>
<clipPath id="clip0_1_2565">
<rect width="16.9836" height="16.9836" fill="white" transform="translate(0.455078)"/>
</clipPath>
</defs>
</svg>
