<svg width="111" height="32" viewBox="0 0 111 32" fill="none" xmlns="http://www.w3.org/2000/svg">
<rect x="1.36719" y="0.5" width="108.867" height="31" rx="15.5" fill="black" stroke="white"/>
<path d="M40.853 8.67094C40.853 9.22125 40.7095 9.70306 40.3525 10.0467C39.9231 10.46 39.4238 10.6655 38.7797 10.6655C38.1356 10.6655 37.6363 10.4589 37.2069 10.0467C36.7775 9.6334 36.5641 9.15275 36.5641 8.53278C36.5641 7.9128 36.7788 7.43215 37.2069 7.01884C37.6363 6.60552 38.1356 6.40002 38.7797 6.40002C39.0655 6.40002 39.3514 6.46852 39.6372 6.60668C39.9231 6.74484 40.1378 6.88184 40.2801 7.0885L39.9231 7.43215C39.6372 7.0885 39.2802 6.95034 38.7797 6.95034C38.3503 6.95034 37.9221 7.0885 37.6363 7.43215C37.2793 7.70731 37.1358 8.12062 37.1358 8.60128C37.1358 9.08193 37.2793 9.49525 37.6363 9.7704C37.9933 10.0456 38.3515 10.2522 38.7797 10.2522C39.2802 10.2522 39.6372 10.1141 39.9942 9.7704C40.2089 9.56374 40.3513 9.28859 40.3513 8.94493H38.7785V8.39462H40.8518V8.66978L40.853 8.67094ZM44.1409 6.9515H42.2111V8.25878H43.9973V8.7406H42.2111V10.0479H44.1409V10.5982H41.6394V6.46968H44.1409V6.9515ZM46.5 10.5982H45.9283V6.9515H44.7138V6.46968H47.7158V6.9515H46.5012V10.5982H46.5ZM49.7879 10.5982V6.46968H50.3596V10.5982H49.7879ZM52.7899 10.5982H52.2182V6.9515H51.0036V6.46968H53.9345V6.9515H52.7199V10.5982H52.7911H52.7899ZM59.5803 10.0479C59.1509 10.4612 58.6516 10.6667 58.0075 10.6667C57.3635 10.6667 56.8641 10.46 56.4348 10.0479C56.0054 9.63456 55.7919 9.15391 55.7919 8.53394C55.7919 7.91397 56.0066 7.43331 56.4348 7.02C56.8641 6.60668 57.3635 6.40119 58.0075 6.40119C58.6516 6.40119 59.1509 6.60784 59.5803 7.02C60.0097 7.43331 60.2232 7.91397 60.2232 8.53394C60.2232 9.15391 60.0085 9.63456 59.5803 10.0479ZM56.8641 9.70422C57.15 9.97938 57.5794 10.186 58.0075 10.186C58.4357 10.186 58.8651 10.0479 59.1509 9.70422C59.4368 9.42907 59.6515 9.01575 59.6515 8.5351C59.6515 8.05445 59.5079 7.64113 59.1509 7.36597C58.8651 7.09082 58.4357 6.88416 58.0075 6.88416C57.5794 6.88416 57.15 7.02232 56.8641 7.36597C56.5783 7.64113 56.3636 8.05445 56.3636 8.5351C56.3636 9.01575 56.5071 9.42907 56.8641 9.70422ZM61.0095 10.5982V6.46968H61.6524L63.7257 9.70306V6.46968H64.2974V10.5982H63.7257L61.5101 7.22665V10.5982H61.0095Z" fill="white"/>
<path d="M55.9693 17.1287C54.2447 17.1287 52.8792 18.3789 52.8792 20.1142C52.8792 21.8494 54.2447 23.0996 55.9693 23.0996C57.6938 23.0996 59.0594 21.8494 59.0594 20.1142C59.0594 18.3789 57.6938 17.1287 55.9693 17.1287ZM55.9693 21.8506C55.0355 21.8506 54.2447 21.0867 54.2447 20.045C54.2447 19.0034 55.0355 18.2395 55.9693 18.2395C56.9031 18.2395 57.6938 18.9343 57.6938 20.045C57.6938 21.0867 56.9031 21.8506 55.9693 21.8506ZM49.2858 17.1287C47.5613 17.1287 46.1957 18.3789 46.1957 20.1142C46.1957 21.8494 47.5613 23.0996 49.2858 23.0996C51.0103 23.0996 52.3759 21.8494 52.3759 20.1142C52.3759 18.3789 51.0103 17.1287 49.2858 17.1287ZM49.2858 21.8506C48.352 21.8506 47.5613 21.0867 47.5613 20.045C47.5613 19.0034 48.352 18.2395 49.2858 18.2395C50.2196 18.2395 51.0103 18.9343 51.0103 20.045C51.0103 21.0867 50.2196 21.8506 49.2858 21.8506ZM41.3083 18.0321V19.2823H44.3984C44.3269 19.9771 44.0395 20.5325 43.6793 20.8793C43.2475 21.2964 42.5296 21.7815 41.3071 21.7815C39.3667 21.7815 37.9296 20.3239 37.9296 18.4492C37.9296 16.5745 39.4383 15.1169 41.3071 15.1169C42.3137 15.1169 43.1032 15.534 43.6793 16.0191L44.6131 15.1169C43.8224 14.4221 42.817 13.8667 41.3787 13.8667C38.7919 13.8667 36.5641 15.95 36.5641 18.4492C36.5641 20.9484 38.7919 23.0317 41.3787 23.0317C42.8158 23.0317 43.8224 22.6146 44.6846 21.7124C45.5469 20.8793 45.8343 19.6982 45.8343 18.796C45.8343 18.5183 45.8343 18.2406 45.7628 18.0321H41.3071H41.3083ZM73.9362 19.0046C73.6487 18.3098 72.9296 17.1299 71.3494 17.1299C69.7692 17.1299 68.4751 18.3098 68.4751 20.1153C68.4751 21.7815 69.7692 23.1008 71.4937 23.1008C72.8592 23.1008 73.7215 22.2677 74.0089 21.7815L73.0023 21.0867C72.6434 21.5729 72.2116 21.9197 71.4937 21.9197C70.7757 21.9197 70.344 21.6421 69.985 21.0175L74.0817 19.3514L73.9374 19.0046H73.9362ZM69.7679 19.9771C69.7679 18.8663 70.7018 18.2418 71.3494 18.2418C71.8527 18.2418 72.3559 18.5195 72.4991 18.8663L69.7679 19.9771ZM66.3904 22.8243H67.756V14.1456H66.3904V22.8243ZM64.2342 17.7555C63.8752 17.4087 63.3003 17.0607 62.5812 17.0607C61.0725 17.0607 59.6342 18.3801 59.6342 20.0462C59.6342 21.7124 60.9998 22.9626 62.5812 22.9626C63.3003 22.9626 63.8752 22.6157 64.1626 22.2677H64.2342V22.6849C64.2342 23.7956 63.5878 24.4201 62.5812 24.4201C61.7905 24.4201 61.2156 23.8648 61.0725 23.3785L59.9228 23.8648C60.2818 24.6287 61.1441 25.6 62.6539 25.6C64.1638 25.6 65.5282 24.6978 65.5282 22.5454V17.2681H64.2342V17.7544V17.7555ZM62.6527 21.8518C61.7189 21.8518 60.9282 21.0878 60.9282 20.0462C60.9282 19.0046 61.7189 18.2406 62.6527 18.2406C63.5866 18.2406 64.3057 19.0046 64.3057 20.0462C64.3057 21.0878 63.5866 21.8518 62.6527 21.8518ZM80.1879 14.1444H76.9535V22.8231H78.319V19.56H80.1879C81.6965 19.56 83.1349 18.5183 83.1349 16.8522C83.1349 15.186 81.6978 14.1444 80.1879 14.1444ZM80.2594 18.3109H78.319V15.3255H80.2594C81.266 15.3255 81.8409 16.1585 81.8409 16.783C81.7693 17.547 81.1945 18.3109 80.2594 18.3109ZM88.5243 17.0607C87.5177 17.0607 86.5124 17.4779 86.1522 18.3801L87.3734 18.8663C87.6609 18.3801 88.0926 18.2418 88.5947 18.2418C89.3138 18.2418 89.9602 18.6589 90.0318 19.3526V19.4217C89.8159 19.2823 89.2411 19.0749 88.6662 19.0749C87.3722 19.0749 86.0794 19.7697 86.0794 21.0187C86.0794 22.1986 87.1576 22.9626 88.3073 22.9626C89.2411 22.9626 89.6728 22.5454 90.0318 22.1295H90.1033V22.8243H91.3973V19.492C91.253 17.9641 90.0318 17.0619 88.5231 17.0619L88.5243 17.0607ZM88.38 21.8518C87.9483 21.8518 87.3019 21.6432 87.3019 21.0878C87.3019 20.393 88.0926 20.1856 88.739 20.1856C89.3138 20.1856 89.6013 20.3251 89.9602 20.4633C89.8159 21.2964 89.098 21.8518 88.3788 21.8518H88.38ZM95.9257 17.2693L94.4171 21.0187H94.3455L92.7641 17.2693H91.327L93.6991 22.5466L92.3336 25.4629H93.6991L97.3641 17.2693H95.927H95.9257ZM83.8516 22.8243H85.2172V14.1456H83.8516V22.8243Z" fill="white"/>
<path d="M13.9563 7.15112C13.739 7.36472 13.667 7.71991 13.667 8.1471V23.8619C13.667 24.2891 13.8122 24.6443 14.0283 24.8579L14.1003 24.9287L23.0702 16.1113V15.9685L13.9563 7.15112Z" fill="url(#paint0_linear_1_646)"/>
<path d="M25.9646 19.0979L22.9982 16.182V15.9684L25.9646 13.0525L26.0366 13.1233L29.5816 15.114C30.5948 15.6828 30.5948 16.6068 29.5816 17.1768L25.9646 19.0967V19.0979Z" fill="url(#paint1_linear_1_646)"/>
<path d="M26.0363 19.027L22.9979 16.0403L13.956 24.9285C14.3174 25.2837 14.824 25.2837 15.4746 24.9993L26.0363 19.0258" fill="url(#paint2_linear_1_646)"/>
<path d="M26.0363 13.0536L15.4746 7.15098C14.824 6.79579 14.3174 6.86659 13.956 7.22178L22.9979 16.0392L26.0363 13.0524V13.0536Z" fill="url(#paint3_linear_1_646)"/>
<path opacity="0.2" d="M25.9643 18.9552L15.4746 24.7858C14.896 25.141 14.3894 25.0702 14.028 24.7858L13.956 24.8566L14.028 24.9274C14.3894 25.2118 14.896 25.2826 15.4746 24.9274L25.9643 18.954V18.9552Z" fill="#F2F2F2"/>
<path opacity="0.12" d="M13.9563 24.7872C13.739 24.5736 13.667 24.2184 13.667 23.7912V23.862C13.667 24.2892 13.8122 24.6444 14.0283 24.858V24.7872H13.9563ZM29.5816 16.9646L25.9646 18.9554L26.0366 19.0262L29.5816 17.0354C30.0882 16.751 30.3055 16.3958 30.3055 16.0394C30.3055 16.3946 30.0162 16.679 29.5816 16.9634V16.9646Z" fill="#F2F2F2"/>
<path opacity="0.25" d="M15.4751 7.22296L29.5818 15.1164C30.0164 15.4008 30.3057 15.6852 30.3057 16.0404C30.3057 15.6852 30.0884 15.3288 29.5818 15.0444L15.4751 7.15096C14.4619 6.58218 13.6672 7.00817 13.6672 8.14694V8.21774C13.6672 7.15096 14.4631 6.65297 15.4751 7.22176V7.22296Z" fill="#F2F2F2"/>
<defs>
<linearGradient id="paint0_linear_1_646" x1="22.251" y1="8.26027" x2="10.3126" y2="20.4125" gradientUnits="userSpaceOnUse">
<stop stop-color="#00A1FF"/>
<stop offset="0.26" stop-color="#00BEFF"/>
<stop offset="0.51" stop-color="#00D2FF"/>
<stop offset="0.76" stop-color="#00DFFF"/>
<stop offset="1" stop-color="#00E3FF"/>
</linearGradient>
<linearGradient id="paint1_linear_1_646" x1="30.9667" y1="16.3366" x2="13.4485" y2="16.3366" gradientUnits="userSpaceOnUse">
<stop stop-color="#FFE000"/>
<stop offset="0.41" stop-color="#FFBD00"/>
<stop offset="0.78" stop-color="#FFA500"/>
<stop offset="1" stop-color="#FF9C00"/>
</linearGradient>
<linearGradient id="paint2_linear_1_646" x1="24.4369" y1="17.9233" x2="8.25093" y2="34.3966" gradientUnits="userSpaceOnUse">
<stop stop-color="#FF3A44"/>
<stop offset="1" stop-color="#C31162"/>
</linearGradient>
<linearGradient id="paint3_linear_1_646" x1="11.7327" y1="2.21879" x2="18.9613" y2="9.57244" gradientUnits="userSpaceOnUse">
<stop stop-color="#32A071"/>
<stop offset="0.07" stop-color="#2DA771"/>
<stop offset="0.48" stop-color="#15CF74"/>
<stop offset="0.8" stop-color="#06E775"/>
<stop offset="1" stop-color="#00F076"/>
</linearGradient>
</defs>
</svg>
