<svg width="66" height="54" viewBox="0 0 66 54" fill="none" xmlns="http://www.w3.org/2000/svg">
<g filter="url(#filter0_d_1_761)">
<rect width="64" height="52" rx="5" fill="white"/>
</g>
<g filter="url(#filter1_d_1_761)">
<path d="M9.64406 27.24C9.64406 22.6533 10.3907 19.08 11.8841 16.52C13.3774 13.9333 15.9907 12.64 19.7241 12.64C23.4307 12.64 26.0307 13.9333 27.5241 16.52C29.0174 19.08 29.7641 22.6533 29.7641 27.24C29.7641 31.9067 29.0174 35.5333 27.5241 38.12C26.0307 40.7067 23.4307 42 19.7241 42C15.9907 42 13.3774 40.7067 11.8841 38.12C10.3907 35.5333 9.64406 31.9067 9.64406 27.24ZM26.1641 27.24C26.1641 24.92 26.0041 22.96 25.6841 21.36C25.3907 19.7333 24.7641 18.4267 23.8041 17.44C22.8707 16.4533 21.5107 15.96 19.7241 15.96C17.9107 15.96 16.5241 16.4533 15.5641 17.44C14.6307 18.4267 14.0041 19.7333 13.6841 21.36C13.3907 22.96 13.2441 24.92 13.2441 27.24C13.2441 29.64 13.3907 31.6533 13.6841 33.28C14.0041 34.9067 14.6307 36.2133 15.5641 37.2C16.5241 38.1867 17.9107 38.68 19.7241 38.68C21.5107 38.68 22.8707 38.1867 23.8041 37.2C24.7641 36.2133 25.3907 34.9067 25.6841 33.28C26.0041 31.6533 26.1641 29.64 26.1641 27.24ZM34.6813 20.36C34.8679 17.9067 35.8146 15.9867 37.5213 14.6C39.2279 13.2133 41.4413 12.52 44.1613 12.52C45.9746 12.52 47.5346 12.8533 48.8413 13.52C50.1746 14.16 51.1746 15.04 51.8413 16.16C52.5346 17.28 52.8813 18.5467 52.8813 19.96C52.8813 21.6133 52.4013 23.04 51.4413 24.24C50.5079 25.44 49.2813 26.2133 47.7613 26.56V26.76C49.4946 27.1867 50.8679 28.0267 51.8813 29.28C52.8946 30.5333 53.4012 32.1733 53.4012 34.2C53.4012 35.72 53.0546 37.0933 52.3613 38.32C51.6679 39.52 50.6279 40.4667 49.2413 41.16C47.8546 41.8533 46.1879 42.2 44.2413 42.2C41.4146 42.2 39.0946 41.4667 37.2812 40C35.4679 38.5067 34.4546 36.4 34.2413 33.68H37.7613C37.9479 35.28 38.6013 36.5867 39.7213 37.6C40.8413 38.6133 42.3346 39.12 44.2013 39.12C46.0679 39.12 47.4813 38.64 48.4413 37.68C49.4279 36.6933 49.9213 35.4267 49.9213 33.88C49.9213 31.88 49.2546 30.44 47.9213 29.56C46.5879 28.68 44.5746 28.24 41.8813 28.24H40.9613V25.2H41.9213C44.3746 25.1733 46.2279 24.7733 47.4813 24C48.7346 23.2 49.3613 21.9733 49.3613 20.32C49.3613 18.9067 48.8946 17.7733 47.9613 16.92C47.0546 16.0667 45.7479 15.64 44.0412 15.64C42.3879 15.64 41.0546 16.0667 40.0413 16.92C39.0279 17.7733 38.4279 18.92 38.2413 20.36H34.6813Z" fill="#E21E26"/>
</g>
<defs>
<filter id="filter0_d_1_761" x="0" y="0" width="66" height="54" filterUnits="userSpaceOnUse" color-interpolation-filters="sRGB">
<feFlood flood-opacity="0" result="BackgroundImageFix"/>
<feColorMatrix in="SourceAlpha" type="matrix" values="0 0 0 0 0 0 0 0 0 0 0 0 0 0 0 0 0 0 127 0" result="hardAlpha"/>
<feOffset dx="1" dy="1"/>
<feGaussianBlur stdDeviation="0.5"/>
<feComposite in2="hardAlpha" operator="out"/>
<feColorMatrix type="matrix" values="0 0 0 0 0.895833 0 0 0 0 0.888368 0 0 0 0 0.888456 0 0 0 0.5 0"/>
<feBlend mode="normal" in2="BackgroundImageFix" result="effect1_dropShadow_1_761"/>
<feBlend mode="normal" in="SourceGraphic" in2="effect1_dropShadow_1_761" result="shape"/>
</filter>
<filter id="filter1_d_1_761" x="4.64407" y="10.52" width="53.7572" height="39.68" filterUnits="userSpaceOnUse" color-interpolation-filters="sRGB">
<feFlood flood-opacity="0" result="BackgroundImageFix"/>
<feColorMatrix in="SourceAlpha" type="matrix" values="0 0 0 0 0 0 0 0 0 0 0 0 0 0 0 0 0 0 127 0" result="hardAlpha"/>
<feOffset dy="3"/>
<feGaussianBlur stdDeviation="2.5"/>
<feComposite in2="hardAlpha" operator="out"/>
<feColorMatrix type="matrix" values="0 0 0 0 0 0 0 0 0 0 0 0 0 0 0 0 0 0 0.15 0"/>
<feBlend mode="normal" in2="BackgroundImageFix" result="effect1_dropShadow_1_761"/>
<feBlend mode="normal" in="SourceGraphic" in2="effect1_dropShadow_1_761" result="shape"/>
</filter>
</defs>
</svg>
