<svg width="9" height="15" viewBox="0 0 9 15" fill="none" xmlns="http://www.w3.org/2000/svg">
<path d="M0.490508 15.0001C0.219717 15.0001 0.000208664 14.7765 0.000208664 14.5007C0.000208664 14.1684 0.000208664 13.79 0.000208664 13.7719C0.000208664 13.1596 -0.00043037 12.5475 0.000528181 11.9352C0.00100746 11.6656 0.143832 11.4613 0.378677 11.3987C0.439545 11.3824 0.504886 11.3784 0.56831 11.3782C0.983683 11.3764 1.3989 11.3774 1.81427 11.3772H1.91731C1.91731 11.3364 1.91731 11.3048 1.91731 11.2731C1.91731 10.8315 1.91603 10.39 1.91779 9.94843C1.91891 9.67376 2.07931 9.46581 2.32837 9.41293C2.3747 9.40317 2.42359 9.40333 2.47135 9.40317C2.9452 9.40252 3.4192 9.40268 3.89305 9.40268C3.9218 9.40268 3.9504 9.40268 3.98395 9.40268V6.34576C3.04537 6.15539 2.30776 5.66106 1.80564 4.8291C1.41359 4.17954 1.27348 3.46718 1.39346 2.71593C1.65579 1.07365 3 -0.0564019 4.63033 0.0021753C6.17711 0.0578237 7.40981 1.24824 7.61366 2.75303C7.8517 4.51067 6.65495 6.05044 5.01551 6.34755V9.40284H5.11216C5.58601 9.40284 6.06001 9.40219 6.53386 9.40301C6.86999 9.40349 7.08151 9.6186 7.08247 9.96193C7.08374 10.398 7.08279 10.8342 7.08279 11.2703C7.08279 11.3022 7.08279 11.3341 7.08279 11.3772H7.18343C7.59881 11.3772 8.01402 11.3767 8.42939 11.3772C8.79093 11.3777 8.99941 11.5894 8.99973 11.957C9.00037 12.5611 8.99973 13.1651 8.99973 13.7693C8.99973 13.7875 8.99973 14.1673 8.99973 14.5004C8.99973 14.7762 8.78022 14.9997 8.50943 14.9997H0.490508V15.0001ZM4.50045 5.35597C5.66828 5.35792 6.61949 4.39335 6.62236 3.20391C6.6254 2.0047 5.67931 1.03932 4.49949 1.03769C3.33022 1.03623 2.38157 1.99771 2.37742 3.18861C2.37326 4.38538 3.32207 5.35386 4.50045 5.35581V5.35597ZM1.02666 13.8697H7.97264C7.97456 13.8539 7.97711 13.8435 7.97711 13.8331C7.97743 13.3835 7.976 12.9339 7.97887 12.4845C7.97935 12.4108 7.93829 12.4176 7.89212 12.4176C5.62994 12.4178 3.3676 12.4181 1.10542 12.4163C1.03816 12.4163 1.02075 12.4365 1.02123 12.5032C1.02394 12.9337 1.0225 13.3643 1.02282 13.795C1.02282 13.8188 1.02522 13.8427 1.02666 13.8698V13.8697ZM6.07966 10.4493H2.94504V11.3725H6.07966V10.4493Z" fill="#191F3E"/>
</svg>
