<svg width="24" height="24" viewBox="0 0 24 24" fill="none" xmlns="http://www.w3.org/2000/svg">
<path d="M6.16158 16.3293C5.84517 16.6457 5.8301 17.2107 6.16911 17.5422C6.50058 17.8736 7.06559 17.8661 7.382 17.5497L11.9925 12.9317L16.6105 17.5497C16.9345 17.8736 17.4919 17.8736 17.8234 17.5422C18.1473 17.2032 18.1549 16.6532 17.8234 16.3293L13.2129 11.7112L17.8234 7.10075C18.1549 6.77681 18.1549 6.21933 17.8234 5.88786C17.4844 5.56392 16.9345 5.55639 16.6105 5.88033L11.9925 10.4984L7.382 5.88033C7.06559 5.56392 6.49305 5.54885 6.16911 5.88786C5.83764 6.21933 5.84517 6.78434 6.16158 7.10075L10.7796 11.7112L6.16158 16.3293Z" fill="black"/>
</svg>
