<svg width="14" height="15" viewBox="0 0 14 15" fill="none" xmlns="http://www.w3.org/2000/svg">
<path d="M12.5 1H1.5C1.23478 1 0.98043 1.10536 0.792893 1.29289C0.605357 1.48043 0.5 1.73478 0.5 2V7C0.5 7.26522 0.605357 7.51957 0.792893 7.70711C0.98043 7.89464 1.23478 8 1.5 8H12.5C12.7652 8 13.0196 7.89464 13.2071 7.70711C13.3946 7.51957 13.5 7.26522 13.5 7V2C13.5 1.73478 13.3946 1.48043 13.2071 1.29289C13.0196 1.10536 12.7652 1 12.5 1Z" stroke="black" stroke-width="1.5" stroke-linecap="round" stroke-linejoin="round"/>
<path d="M11 8V6C11 5.73478 10.8946 5.48043 10.7071 5.29289C10.5196 5.10536 10.2652 5 10 5H4C3.73478 5 3.48043 5.10536 3.29289 5.29289C3.10536 5.48043 3 5.73478 3 6V8M2.5 13H2.6C2.9713 13 3.3274 12.8525 3.58995 12.5899C3.8525 12.3274 4 11.9713 4 11.6V10.5M11.5 13H11.4C11.0287 13 10.6726 12.8525 10.4101 12.5899C10.1475 12.3274 10 11.9713 10 11.6V10.5M7 14V10.5" stroke="black" stroke-width="1.5" stroke-linecap="round" stroke-linejoin="round"/>
</svg>
