<svg width="18" height="17" viewBox="0 0 18 17" fill="none" xmlns="http://www.w3.org/2000/svg">
<path d="M8.53768 0C3.84784 0 0.0458984 3.80194 0.0458984 8.49178C0.0458984 12.4741 2.78772 15.8158 6.4864 16.7336V11.0869H4.7354V8.49178H6.4864V7.37358C6.4864 4.48332 7.79448 3.14366 10.6321 3.14366C11.1701 3.14366 12.0985 3.2493 12.4782 3.35459V5.70682C12.2778 5.68576 11.9296 5.67523 11.4972 5.67523C10.1049 5.67523 9.56688 6.20274 9.56688 7.57399V8.49178H12.3406L11.8641 11.0869H9.56688V16.9214C13.7717 16.4136 17.0298 12.8335 17.0298 8.49178C17.0295 3.80194 13.2275 0 8.53768 0Z" fill="black"/>
</svg>
