<svg width="17" height="17" viewBox="0 0 17 17" fill="none" xmlns="http://www.w3.org/2000/svg">
<g clip-path="url(#clip0_551_124)">
<path d="M8.29508 0C3.71387 0 0 3.71387 0 8.29508C0 12.1851 2.67832 15.4494 6.29132 16.346V10.8301H4.58087V8.29508H6.29132V7.20278C6.29132 4.37947 7.56909 3.07084 10.341 3.07084C10.8666 3.07084 11.7734 3.17403 12.1443 3.27689V5.57463C11.9486 5.55405 11.6085 5.54377 11.1861 5.54377C9.82602 5.54377 9.30044 6.05906 9.30044 7.39855V8.29508H12.0099L11.5444 10.8301H9.30044V16.5294C13.4078 16.0334 16.5905 12.5362 16.5905 8.29508C16.5902 3.71387 12.8763 0 8.29508 0Z" fill="white"/>
</g>
<defs>
<clipPath id="clip0_551_124">
<rect width="16.5902" height="16.5902" fill="white"/>
</clipPath>
</defs>
</svg>
