<svg width="9" height="16" viewBox="0 0 9 16" fill="none" xmlns="http://www.w3.org/2000/svg">
<path d="M8.23249 0C8.29013 0.0242667 8.35079 0.0430735 8.40479 0.0740135C8.62167 0.198381 8.75028 0.385538 8.78395 0.634272C8.79427 0.710105 8.79851 0.787455 8.79882 0.863896C8.80003 1.54245 8.80064 2.22132 8.79882 2.89987C8.79821 3.10887 8.74149 3.30028 8.5971 3.45892C8.43027 3.64183 8.21854 3.7122 7.97739 3.7116C7.59822 3.71099 7.21905 3.71008 6.83989 3.7119C6.69398 3.71251 6.54747 3.71129 6.404 3.74557C6.3773 3.75194 6.35091 3.76134 6.32483 3.77014C6.27174 3.78804 6.23443 3.82444 6.22412 3.87843C6.20744 3.96458 6.18772 4.05224 6.1865 4.1393C6.18165 4.49238 6.18377 4.84576 6.18226 5.19884C6.18226 5.22827 6.19652 5.22736 6.21714 5.22736C6.74858 5.22705 7.28033 5.22584 7.81177 5.22796C7.91339 5.22827 8.01622 5.23464 8.11571 5.25344C8.27223 5.28287 8.40297 5.36477 8.50883 5.48428C8.59498 5.58105 8.65807 5.69176 8.68052 5.81977C8.6969 5.91229 8.70691 6.00753 8.70721 6.10157C8.70933 6.84595 8.70964 7.59003 8.70751 8.33441C8.70691 8.60013 8.61136 8.8246 8.39356 8.98658C8.24796 9.09487 8.08113 9.13794 7.90095 9.13764C7.34433 9.13643 6.78741 9.13733 6.23079 9.13582C6.19288 9.13582 6.18196 9.14431 6.18196 9.18344C6.18287 9.79284 6.18165 10.4019 6.18165 11.0113C6.18165 12.2086 6.18135 13.4056 6.18196 14.6028C6.18196 14.7317 6.17922 14.8597 6.13858 14.9841C6.04667 15.2656 5.77882 15.4755 5.48338 15.4937C5.40421 15.4986 5.32504 15.5013 5.24587 15.5013C4.50512 15.5019 3.76438 15.5019 3.02364 15.5013C2.86591 15.5013 2.71242 15.4791 2.5738 15.3951C2.34903 15.2589 2.22253 15.0593 2.20221 14.7979C2.1925 14.6738 2.19554 14.5482 2.19554 14.4235C2.19523 12.7685 2.19554 11.1136 2.19554 9.45857C2.19554 9.36635 2.19311 9.27444 2.19493 9.18223C2.19584 9.14552 2.18492 9.13612 2.14852 9.13643C1.69746 9.13764 1.24671 9.13733 0.795651 9.13703C0.58089 9.13703 0.38797 9.07728 0.230843 8.925C0.0791757 8.77788 0.000308872 8.59861 0.000612206 8.38476C0.00121887 7.57729 -0.00181447 6.77012 0.00182554 5.96264C0.00303888 5.6857 0.138023 5.47852 0.37159 5.33474C0.516584 5.24525 0.678564 5.22796 0.843881 5.22796C1.28736 5.22796 1.73083 5.22827 2.174 5.22827C2.17885 5.22827 2.18371 5.22736 2.19129 5.22645C2.1922 5.21431 2.19341 5.20339 2.19341 5.19278C2.19341 4.82059 2.1919 4.4484 2.19432 4.07651C2.19705 3.66215 2.23376 3.25205 2.33325 2.8477C2.44094 2.4106 2.6105 2.00201 2.85499 1.62435C3.047 1.328 3.27783 1.06501 3.55144 0.842662C3.684 0.734979 3.82475 0.635485 3.97095 0.547518C4.1302 0.451968 4.29613 0.365518 4.4663 0.291201C4.67014 0.202021 4.88399 0.139534 5.10209 0.0916069C5.25315 0.0582402 5.4036 0.0224467 5.56103 0.0160767C5.53949 0.01092 5.51796 0.00576335 5.49612 0.000910003C6.40824 0.000910003 7.32037 0 8.23249 0ZM5.27044 14.5913C5.27135 14.5764 5.27256 14.5628 5.27256 14.5491C5.27256 12.6584 5.27256 10.7675 5.27256 8.87677C5.27256 8.81883 5.27317 8.76059 5.2765 8.70296C5.28833 8.50064 5.42847 8.32167 5.62048 8.25706C5.70602 8.22824 5.79429 8.23037 5.88226 8.23037C6.48954 8.22946 7.09651 8.22976 7.70378 8.22946C7.79842 8.22946 7.79812 8.22885 7.79812 8.13512C7.79812 7.49053 7.79873 6.84595 7.79903 6.20167C7.79903 6.13736 7.79903 6.13766 7.73563 6.13766C7.24817 6.13766 6.76072 6.13736 6.27326 6.13706C6.12341 6.13706 5.97356 6.13706 5.82372 6.13706C5.64991 6.13706 5.50006 6.08306 5.38783 5.94383C5.30198 5.83736 5.27317 5.7133 5.27286 5.58014C5.27256 5.16275 5.27226 4.74506 5.27286 4.32767C5.27286 4.13839 5.28591 3.95002 5.32231 3.76377C5.41331 3.29512 5.72028 2.98056 6.18711 2.86924C6.39975 2.81858 6.61663 2.80129 6.83534 2.8019C7.17295 2.80281 7.51056 2.8019 7.84817 2.8019C7.8603 2.8019 7.87244 2.80068 7.88427 2.80008V0.884826C7.87729 0.883309 7.87365 0.881792 7.87001 0.881792C7.56152 0.880882 7.25272 0.879062 6.94423 0.879972C6.50379 0.881489 6.06305 0.861166 5.62352 0.914553C5.36841 0.945493 5.1212 1.00677 4.88187 1.09716C4.55366 1.22122 4.26064 1.40535 4.00341 1.64528C3.8111 1.82486 3.65458 2.03082 3.52444 2.25984C3.33152 2.59927 3.21535 2.96418 3.15407 3.3476C3.11282 3.60452 3.10433 3.86448 3.10311 4.12443C3.1016 4.48146 3.10311 4.83848 3.10251 5.1952C3.10251 5.34778 3.10615 5.50066 3.09947 5.65294C3.0925 5.81765 3.01636 5.94899 2.88138 6.04454C2.78401 6.1134 2.67329 6.13706 2.5562 6.13706C2.0196 6.13706 1.48301 6.13706 0.946408 6.13706C0.932151 6.13706 0.917591 6.13706 0.900908 6.13706C0.900908 6.15374 0.900908 6.16375 0.900908 6.17376C0.900908 6.84474 0.901211 7.51601 0.899998 8.18699C0.899998 8.22157 0.910615 8.22855 0.942768 8.22824C1.40869 8.22764 1.87491 8.22824 2.34083 8.22915C2.44033 8.22915 2.54013 8.22855 2.63932 8.23431C2.88532 8.24917 3.09159 8.4606 3.09917 8.70721C3.10372 8.85705 3.1022 9.00751 3.1022 9.15736C3.1019 10.9586 3.10129 12.7598 3.10099 14.5613C3.10099 14.5707 3.10281 14.5804 3.10402 14.5907L5.27044 14.5913Z" fill="black"/>
</svg>
