<svg width="23" height="29" viewBox="0 0 23 29" fill="none" xmlns="http://www.w3.org/2000/svg">
<g clip-path="url(#clip0_551_28)">
<path d="M11.2439 28.9991H10.9537C10.8833 28.9411 10.8067 28.889 10.7432 28.8242C9.99326 28.0663 9.23171 27.318 8.49957 26.5452C7.87036 25.8804 7.24503 25.2089 6.67077 24.5008C5.71651 23.3238 4.77308 22.1363 3.88229 20.9146C2.93035 19.6087 2.11849 18.2157 1.43743 16.7602C0.754048 15.2995 0.168181 13.8001 0.0513172 12.1852C-0.00827567 11.3603 -0.0268501 10.522 0.0590565 9.70158C0.151928 8.81561 0.439058 7.96018 0.783458 7.12484C1.29038 5.89269 2.02562 4.80795 2.95202 3.8386C3.98754 2.75535 5.20107 1.89395 6.61504 1.33334C7.3557 1.03926 8.14201 0.850159 8.91595 0.638719C9.29595 0.533 9.69298 0.483862 10.083 0.410156C10.7409 0.410156 11.3987 0.410156 12.0566 0.410156C12.4373 0.484607 12.815 0.574692 13.1981 0.63053C14.2042 0.777197 15.1492 1.10776 16.0547 1.53436C17.4718 2.20143 18.6629 3.1477 19.6845 4.3054C20.5118 5.24199 21.1116 6.29993 21.5736 7.43381C21.9242 8.29521 22.1123 9.20127 22.2067 10.1178C22.2632 10.6612 22.2222 11.2152 22.2129 11.7639C22.2083 12.0289 22.216 12.3036 22.151 12.5575C21.918 13.4658 21.699 14.3808 21.3964 15.2682C20.7873 17.0536 19.8323 18.6818 18.7875 20.2587C17.7488 21.8266 16.6197 23.3327 15.3512 24.7376C14.4101 25.7799 13.4512 26.8081 12.4838 27.8273C12.0937 28.2383 11.6588 28.6098 11.2439 28.9991ZM6.02066 11.131C5.93011 13.7063 8.32776 16.2063 11.3801 16.0522C13.688 15.9353 16.5307 13.9386 16.1785 10.5816C15.9386 8.29223 13.9512 6.22772 11.0435 6.22772C8.26584 6.22772 5.99358 8.41358 6.02066 11.1303V11.131Z" fill="#E21E26"/>
</g>
<defs>
<clipPath id="clip0_551_28">
<rect width="22.2359" height="28.589" fill="white" transform="translate(0 0.410156)"/>
</clipPath>
</defs>
</svg>
