<svg width="137" height="146" viewBox="0 0 137 146" fill="none" xmlns="http://www.w3.org/2000/svg">
<path d="M48.5064 59.0473C48.3235 59.2446 48.168 59.6164 48.168 59.8918V80.8025C48.168 81.0641 48.3235 81.133 48.511 80.9448L56.7581 72.7108C56.9457 72.5227 57.092 72.1463 57.092 71.8801V59.8918C57.092 59.6164 57.2521 59.2446 57.4351 59.0473L67.0636 48.8903C67.242 48.6929 67.3975 48.3165 67.3975 48.0595V40.1377L67.059 40L48.5019 59.0427" fill="#009046"/>
<path d="M67.357 59.4004H58.7852V67.6114H67.357V59.4004Z" fill="#009046"/>
<path d="M88.0719 40.1367L79.9757 48.1917C79.7836 48.3798 79.6327 48.7562 79.6327 49.0224V58.9132C79.6327 59.1794 79.4177 59.3997 79.1524 59.3997H78.4434C78.1781 59.3997 77.9631 59.1794 77.9631 58.9132V49.0224C77.9631 48.7562 77.803 48.3798 77.6155 48.1917L69.5239 40.1367H69.0391V71.8746C69.0391 72.1408 69.1946 72.5171 69.3821 72.7053L77.6109 80.9392C77.7985 81.1182 77.9586 81.0586 77.9586 80.797V68.1248C77.9586 67.854 78.1735 67.6428 78.4388 67.6428H79.1433C79.404 67.6428 79.6281 67.854 79.6281 68.1248V80.797C79.6281 81.0586 79.7791 81.1274 79.9712 80.9392L88.2091 72.7053C88.4012 72.5171 88.5613 72.1408 88.5613 71.8746V40.1367H88.0673" fill="#009046"/>
<path d="M96.7463 86.6035H40V87.1405H96.7463V86.6035Z" fill="white"/>
<path d="M42.3073 100.305L40.0156 105.858H41.8682L42.2112 104.931H44.5394L44.8642 105.858H46.9546L44.6675 100.305H42.3118M42.6869 103.715L43.405 101.769L44.0957 103.715H42.6869Z" fill="white"/>
<path d="M49.5297 100.305H47.6406V105.854H51.5972V104.5H49.5297V100.305Z" fill="white"/>
<path d="M56.2864 102.356H54.2875V100.305H52.3984V105.854H54.2875V103.71H56.2864V105.854H58.1755V100.305H56.2864V102.356Z" fill="white"/>
<path d="M61.0253 100.305L58.7383 105.858H60.5908L60.9339 104.931H63.2621L63.5868 105.858H65.6635L63.3856 100.305H61.0299M61.3913 103.715L62.1185 101.769L62.8184 103.715H61.3913Z" fill="white"/>
<path d="M71.1619 103.385C70.9012 103.174 70.6039 103.064 70.27 103.05V103.032C70.5764 102.944 70.8326 102.802 71.043 102.596C71.2488 102.412 71.3495 102.123 71.3495 101.747C71.3678 100.787 70.7137 100.31 69.3826 100.301H66.2539V105.854H69.6387C70.1145 105.854 70.4621 105.822 70.6908 105.749L70.9973 105.616L71.2168 105.418C71.4409 105.203 71.5461 104.858 71.5553 104.422C71.5461 103.954 71.4135 103.601 71.1665 103.38M68.1385 101.324H68.7422L69.1402 101.356L69.3826 101.48C69.4878 101.586 69.5335 101.742 69.529 101.935C69.529 102.118 69.4741 102.265 69.3597 102.38C69.2454 102.49 69.035 102.545 68.7468 102.545H68.1385V101.324ZM69.4924 104.698C69.3414 104.808 69.0944 104.858 68.7468 104.858H68.1385V103.532H68.7468C69.0944 103.532 69.346 103.573 69.4924 103.683C69.6387 103.789 69.7074 103.968 69.7074 104.197C69.7074 104.427 69.6433 104.592 69.4924 104.698Z" fill="white"/>
<path d="M72.0977 101.649H73.5797V105.854H75.4551V101.649H76.9371V100.305H72.0977V101.649Z" fill="white"/>
<path d="M80.4082 100.162C79.8319 100.162 79.3928 100.213 79.068 100.323C78.7387 100.424 78.4734 100.575 78.263 100.773C77.7004 101.227 77.4122 101.993 77.3985 103.077C77.3939 103.921 77.6135 104.614 78.0709 105.16C78.542 105.711 79.3196 105.991 80.4037 106C81.5472 105.991 82.3477 105.661 82.8142 105.041C83.1984 104.596 83.3951 103.939 83.3997 103.086C83.3997 102.227 83.1802 101.534 82.7273 100.997C82.2699 100.447 81.4923 100.171 80.4037 100.162M80.4037 104.733C80.0789 104.733 79.8228 104.6 79.6307 104.325C79.4294 104.059 79.3242 103.646 79.3242 103.081C79.3242 102.517 79.4294 102.085 79.6307 101.819C79.8274 101.548 80.0789 101.415 80.4037 101.415C81.0852 101.415 81.4466 101.966 81.4694 103.081C81.4466 104.196 81.0852 104.743 80.4037 104.733Z" fill="white"/>
<path d="M87.2193 100.162C86.6521 100.162 86.2084 100.213 85.8836 100.323C85.5589 100.424 85.2799 100.575 85.0832 100.773C84.516 101.227 84.2278 101.993 84.2232 103.077C84.2095 103.921 84.4382 104.614 84.9048 105.16C85.3668 105.711 86.1398 105.991 87.2193 106C88.3674 105.991 89.1678 105.661 89.6344 105.041C90.0278 104.596 90.2153 103.939 90.2245 103.086C90.2245 102.227 90.0095 101.534 89.5521 100.997C89.0901 100.447 88.3125 100.171 87.2193 100.162ZM87.2193 104.733C86.9037 104.733 86.6521 104.6 86.4554 104.325C86.245 104.059 86.1398 103.646 86.1398 103.081C86.1398 102.517 86.245 102.085 86.4554 101.819C86.6521 101.548 86.9037 101.415 87.2193 101.415C87.9145 101.415 88.2805 101.966 88.3033 103.081C88.2805 104.196 87.9145 104.743 87.2193 104.733Z" fill="white"/>
<path d="M96.4761 103.993C96.4395 103.709 96.3297 103.516 96.1788 103.397C96.0187 103.282 95.8311 103.227 95.607 103.227V103.149C95.8952 103.089 96.1284 102.942 96.3023 102.718C96.4898 102.497 96.5767 102.194 96.5767 101.841C96.5767 101.226 96.3983 100.827 96.0324 100.602C95.6848 100.391 95.177 100.294 94.5504 100.303H91.2891V105.857H93.1782V103.842H93.7682C94.0976 103.837 94.3034 103.879 94.4086 103.971C94.5184 104.062 94.5824 104.292 94.6053 104.618L94.7745 105.857H96.7185L96.4807 103.998M94.5184 102.617C94.3766 102.727 94.189 102.763 93.9603 102.763H93.1827V101.419H93.9237C94.4543 101.419 94.7288 101.63 94.7288 102.084C94.7288 102.341 94.6556 102.516 94.523 102.612" fill="white"/>
<path d="M43.6593 98.0793C43.9566 97.8774 44.1075 97.5928 44.1396 97.2256V92.6543H42.2642V96.707C42.2642 96.9135 42.1041 97.0191 41.8982 97.0191L40 97.0283V98.3731H42.4106C42.8863 98.3731 43.3482 98.2813 43.6547 98.0839" fill="white"/>
<path d="M96.7374 90.6113H94.8438V96.1924H96.7374V90.6113Z" fill="white"/>
<path d="M49.4762 97.3478V96.1911H92.395C93.6437 96.1911 94.0371 95.7964 94.0371 94.9932V90.6055H92.1434V94.4057L92.0062 94.8096H89.4036V93.6025C89.4036 92.9049 88.8912 92.5607 87.8712 92.5515H84.9026V93.9055H87.5236C87.7111 93.9055 87.8575 94.0523 87.8575 94.2451V94.8096H77.6984V92.6479H75.8093V94.8096H65.0328V92.6479H63.1391V94.8096H49.4717C49.4808 94.5756 49.4808 92.703 49.4717 92.6479H46.5168C46.0594 92.6203 45.6752 92.7443 45.3916 92.9967C45.108 93.2721 44.9662 93.8825 44.957 94.5297C44.9662 95.1217 45.1034 95.5532 45.3733 95.8056C45.6477 96.058 45.9954 96.182 46.4299 96.1911H47.9256V96.7098C47.9256 96.898 47.7747 97.0127 47.5871 97.0127H44.9616V98.3667H47.9348C48.9548 98.385 49.4762 98.0408 49.4762 97.3478ZM47.9348 95.1401H47.578C47.2715 95.1401 47.0474 95.0896 46.9148 94.9932C46.7913 94.8923 46.7318 94.7087 46.7318 94.4746C46.7318 94.2681 46.7821 94.1074 46.8782 93.9973C46.9788 93.8871 47.1526 93.8412 47.4042 93.8412H47.9302V95.1401H47.9348Z" fill="white"/>
<path d="M77.6938 96.8203H75.8047V98.2248H77.6938V96.8203Z" fill="white"/>
<path d="M63.757 90.625H61.8633V92.0249H63.757V90.625Z" fill="white"/>
<path d="M66.2687 90.625H64.375V92.0249H66.2687V90.625Z" fill="white"/>
</svg>
