<svg width="26" height="26" viewBox="0 0 26 26" fill="none" xmlns="http://www.w3.org/2000/svg">
<path d="M20.8325 16.5317L18.0808 16.2175C17.7573 16.1795 17.4293 16.2154 17.1216 16.3223C16.8139 16.4293 16.5344 16.6046 16.3042 16.835L14.3108 18.8284C11.2354 17.2643 8.73574 14.7646 7.17165 11.6892L9.17582 9.68503C9.64165 9.2192 9.86915 8.5692 9.79332 7.90837L9.47915 5.17837C9.41773 4.64989 9.16411 4.16245 8.76657 3.80887C8.36904 3.45528 7.85535 3.26023 7.32332 3.26087H5.44915C4.22498 3.26087 3.20665 4.2792 3.28248 5.50337C3.85665 14.755 11.2558 22.1434 20.4967 22.7175C21.7208 22.7934 22.7391 21.775 22.7391 20.5509V18.6767C22.75 17.5825 21.9266 16.6617 20.8325 16.5317Z" fill="#E21E26"/>
</svg>
