<svg width="103" height="30" viewBox="0 0 103 30" fill="none" xmlns="http://www.w3.org/2000/svg">
<g clip-path="url(#clip0_1_764)">
<rect x="0.25" y="0.25" width="102.5" height="29.5" rx="14.75" stroke="white" stroke-width="0.5"/>
<path d="M105 30.3911C105 32.3839 103.622 34 101.923 34H101.92H1.08552C-0.616461 34.0016 -1.99729 32.387 -2 30.3911V1.61367C-1.99729 -0.382273 -0.617816 -1.99841 1.08552 -2H101.919C103.621 -2 105 -0.382273 105 1.61208V30.3911Z" fill="#F2F2F2" fill-opacity="0.17"/>
<path d="M26.8584 15.0406C26.8404 12.8929 28.5111 11.8476 28.5871 11.7993C27.6409 10.3315 26.1741 10.1303 25.6587 10.1146C24.4264 9.97635 23.232 10.8991 22.6047 10.8991C21.9774 10.8991 20.9985 10.1281 19.9562 10.1506C18.6161 10.173 17.3626 10.998 16.6741 12.2803C15.2548 14.8945 16.3129 18.736 17.6731 20.8489C18.3532 21.8841 19.1484 23.0394 20.1885 22.999C21.2065 22.9551 21.5867 22.3089 22.8149 22.3089C24.043 22.3089 24.3883 22.999 25.4496 22.9731C26.5416 22.9551 27.2301 21.9335 27.8859 20.8894C28.6716 19.7037 28.9873 18.5348 29 18.4753C28.9747 18.4663 26.8795 17.6144 26.8584 15.0406ZM24.8541 8.72433C25.4011 7.99604 25.776 7.00477 25.6725 6C24.8805 6.03709 23.8899 6.5833 23.3186 7.29586C22.8138 7.92411 22.3629 8.95248 22.4791 9.92016C23.3693 9.99096 24.2827 9.4425 24.8541 8.72545V8.72433Z" fill="white"/>
<path d="M42.3276 22.5409H40.8462L40.0346 20.0689H37.2149L36.4418 22.5409H35L37.7944 14.1269H39.5199L42.3276 22.5409ZM39.7905 19.0324L39.0569 16.8356C38.9789 16.6116 38.8337 16.0827 38.6192 15.2509H38.5928C38.5071 15.6092 38.3696 16.1371 38.1804 16.8356L37.459 19.0324H39.7905ZM49.5011 19.4323C49.5011 20.4646 49.2119 21.2793 48.6334 21.8786C48.1155 22.4118 47.4721 22.6774 46.7045 22.6774C45.8753 22.6774 45.2793 22.3905 44.9174 21.8168V25H43.5274V18.4661C43.5274 17.8177 43.5098 17.1534 43.4757 16.4719H44.6986L44.7767 17.4338H44.8031C45.2672 16.7097 45.971 16.3472 46.9146 16.3472C47.6525 16.3472 48.2694 16.6298 48.7621 17.196C49.2548 17.7634 49.5022 18.5077 49.5022 19.4323H49.5011ZM48.0847 19.4813C48.0847 18.8905 47.9472 18.4043 47.6723 18.0204C47.3721 17.6215 46.9673 17.4221 46.4615 17.4221C46.1183 17.4221 45.8071 17.533 45.5278 17.7527C45.2485 17.9745 45.0659 18.2624 44.9801 18.6207C44.9416 18.7551 44.9207 18.8927 44.9152 19.0313V20.0433C44.9152 20.4838 45.0549 20.8559 45.3342 21.1609C45.6136 21.4649 45.9765 21.6163 46.4219 21.6163C46.9454 21.6163 47.3534 21.4201 47.6448 21.0298C47.9373 20.6384 48.0836 20.1222 48.0836 19.4813H48.0847ZM56.7 19.4323C56.7 20.4646 56.4108 21.2793 55.8323 21.8786C55.3144 22.4118 54.671 22.6774 53.9023 22.6774C53.0731 22.6774 52.477 22.3905 52.1152 21.8168V25H50.7252V18.4661C50.7252 17.8177 50.7076 17.1534 50.6735 16.4719H51.8964L51.9745 17.4338H52.0008C52.4638 16.7097 53.1677 16.3472 54.1123 16.3472C54.8503 16.3472 55.4661 16.6298 55.961 17.196C56.4526 17.7634 56.7011 18.5077 56.7011 19.4323H56.7ZM55.2825 19.4813C55.2825 18.8905 55.145 18.4043 54.8701 18.0204C54.5698 17.6215 54.1673 17.4221 53.6604 17.4221C53.3172 17.4221 53.006 17.533 52.7256 17.7527C52.4462 17.9745 52.2648 18.2624 52.179 18.6207C52.1361 18.7882 52.1141 18.9236 52.1141 19.0313V20.0433C52.1141 20.4838 52.2549 20.8559 52.532 21.1609C52.8114 21.4638 53.1743 21.6163 53.6208 21.6163C54.1453 21.6163 54.5522 21.4201 54.8437 21.0298C55.1362 20.6384 55.2825 20.1222 55.2825 19.4813ZM64.7479 20.1798C64.7479 20.8965 64.4895 21.4787 63.9759 21.9277C63.4106 22.4182 62.6221 22.6646 61.6115 22.6646C60.6778 22.6646 59.9289 22.4897 59.3636 22.1399L59.6847 21.0159C60.2951 21.3657 60.9648 21.5406 61.6939 21.5406C62.2185 21.5406 62.6254 21.4254 62.9168 21.1972C63.2083 20.9679 63.3556 20.6619 63.3556 20.2801C63.3556 19.9378 63.2336 19.652 62.9938 19.4184C62.753 19.1859 62.3549 18.9684 61.7962 18.77C60.2764 18.2208 59.5165 17.4168 59.5165 16.36C59.5165 15.67 59.7848 15.1037 60.3215 14.6622C60.8581 14.2207 61.5686 14 62.4528 14C63.2424 14 63.9011 14.1333 64.4235 14.3999L64.0749 15.4983C63.5833 15.2402 63.0279 15.1112 62.4077 15.1112C61.9172 15.1112 61.5323 15.2285 61.2573 15.461C61.0253 15.6689 60.9087 15.9227 60.9087 16.2235C60.9087 16.5551 61.0429 16.8313 61.309 17.0478C61.54 17.2472 61.9612 17.4637 62.5704 17.6962C63.3182 17.9884 63.867 18.3286 64.2189 18.7189C64.573 19.1092 64.749 19.5976 64.749 20.1777L64.7479 20.1798ZM69.3569 17.484H67.8239V20.4294C67.8239 21.1791 68.0944 21.5523 68.6355 21.5523C68.884 21.5523 69.0897 21.532 69.2535 21.4894L69.292 22.5131C69.0182 22.6123 68.6575 22.6624 68.211 22.6624C67.6622 22.6624 67.2322 22.5003 66.9232 22.1751C66.6142 21.8498 66.4591 21.306 66.4591 20.5392V17.4808H65.5463V16.4687H66.4591V15.3575L67.825 14.9576V16.4677H69.358V17.4818L69.3569 17.484ZM76.2589 19.4557C76.2589 20.3889 75.9839 21.1545 75.4341 21.7528C74.86 22.3692 74.0946 22.6763 73.1422 22.6763C72.1898 22.6763 71.4915 22.3809 70.946 21.7912C70.4006 21.2004 70.1278 20.455 70.1278 19.5571C70.1278 18.6591 70.4094 17.8465 70.9713 17.2483C71.5344 16.649 72.2921 16.3493 73.2445 16.3493C74.1969 16.3493 74.9007 16.6447 75.4583 17.2355C75.9916 17.8081 76.2578 18.5482 76.2578 19.4557H76.2589ZM74.8171 19.4867C74.8171 18.9311 74.6928 18.4544 74.4443 18.0555C74.1529 17.5735 73.735 17.3325 73.195 17.3325C72.655 17.3325 72.2107 17.5735 71.9204 18.0555C71.6708 18.4544 71.5476 18.9396 71.5476 19.5123C71.5476 20.0849 71.6719 20.5467 71.9204 20.9445C72.2206 21.4265 72.6407 21.6675 73.184 21.6675C73.7273 21.6675 74.132 21.4211 74.4333 20.9327C74.6884 20.5243 74.8171 20.0444 74.8171 19.4877V19.4867ZM80.7799 17.6578C80.6347 17.6322 80.4885 17.6205 80.3411 17.6205C79.8517 17.6205 79.4734 17.7985 79.2073 18.1579C78.9763 18.4736 78.8597 18.8735 78.8597 19.3566V22.5398H77.4697V18.3829C77.4708 17.7463 77.4576 17.1096 77.429 16.473H78.6398L78.6904 17.6343H78.7289C78.8762 17.2355 79.1072 16.9134 79.4239 16.6724C79.7142 16.4623 80.0662 16.3482 80.4291 16.3472C80.5577 16.3472 80.6732 16.3557 80.7766 16.3717V17.6578H80.7777H80.7799ZM86.9989 19.219C87.0022 19.4238 86.9857 19.6285 86.9483 19.8301H82.777C82.7924 20.4294 82.9948 20.889 83.3819 21.2047C83.7338 21.4862 84.188 21.628 84.7466 21.628C85.3647 21.628 85.9278 21.5331 86.4347 21.3412L86.6525 22.2764C86.0597 22.527 85.3614 22.6518 84.5542 22.6518C83.5842 22.6518 82.8221 22.3745 82.2678 21.8221C81.7147 21.2686 81.4375 20.5254 81.4375 19.5944C81.4375 18.6634 81.6949 17.918 82.2106 17.3101C82.7506 16.6618 83.4808 16.3376 84.3991 16.3376C85.3174 16.3376 85.9838 16.6618 86.4479 17.3101C86.8152 17.8241 87 18.4619 87 19.2179L86.9989 19.219ZM85.6726 18.8692C85.6825 18.4693 85.5912 18.1249 85.4021 17.8327C85.1612 17.4573 84.7906 17.2696 84.2946 17.2696C83.8405 17.2696 83.4698 17.452 83.1883 17.8188C82.9563 18.1099 82.8188 18.4608 82.777 18.8671H85.6726V18.8682V18.8692Z" fill="white"/>
<path d="M36.9884 10.972C36.6057 10.972 36.2751 10.9556 36 10.9276V7.24517C36.3849 7.19209 36.7742 7.16602 37.1635 7.16699C38.7402 7.16699 39.4666 7.85521 39.4666 8.9778C39.4666 10.2722 38.6086 10.972 36.9884 10.972ZM37.219 7.639C37.0058 7.639 36.8253 7.65058 36.6742 7.67761V10.4768C36.7557 10.4884 36.9112 10.4932 37.1309 10.4932C38.1639 10.4932 38.7522 9.97104 38.7522 8.99421C38.7522 8.12259 38.2204 7.639 37.219 7.639ZM41.7294 11C40.841 11 40.2647 10.4112 40.2647 9.61197C40.2647 8.81274 40.853 8.18436 41.7794 8.18436C42.6548 8.18436 43.2441 8.74517 43.2441 9.56757C43.2441 10.39 42.6374 11 41.7294 11ZM41.7555 8.62259C41.2673 8.62259 40.9541 9.02799 40.9541 9.59459C40.9541 10.1612 41.2738 10.556 41.749 10.556C42.2242 10.556 42.5439 10.1226 42.5439 9.58398C42.5439 9.04537 42.2307 8.62355 41.7555 8.62355V8.62259ZM48.3124 8.23938L47.3609 10.9382H46.7411L46.3475 9.76641C46.2496 9.47973 46.1681 9.18919 46.1028 8.89479H46.0898C46.0398 9.18919 45.9463 9.48359 45.8462 9.76641L45.4276 10.9382H44.8013L43.9063 8.23938H44.6012L44.9459 9.5222C45.0274 9.82819 45.0959 10.1158 45.1525 10.389H45.1655C45.2155 10.1622 45.296 9.87838 45.4156 9.52799L45.8473 8.23938H46.3975L46.8107 9.5C46.9108 9.80598 46.9923 10.1052 47.0554 10.389H47.0739C47.1174 10.111 47.187 9.8166 47.2805 9.5L47.6502 8.23938H48.3135H48.3124ZM51.8138 10.9382H51.1374V9.38803C51.1374 8.9112 50.9308 8.67181 50.5241 8.67181C50.1175 8.67181 49.8478 8.9778 49.8478 9.33301V10.9382H49.1714V9.01062C49.1714 8.7722 49.1649 8.51641 49.1464 8.23842H49.7412L49.7728 8.65541H49.7912C49.9728 8.3668 50.3415 8.1834 50.7557 8.1834C51.394 8.1834 51.8138 8.6168 51.8138 9.32143V10.9373V10.9382ZM53.6775 10.9382H53.0012V7.00097H53.6775V10.9382ZM56.1415 10.999C55.2531 10.999 54.6768 10.4102 54.6768 9.611C54.6768 8.81178 55.2651 8.1834 56.1916 8.1834C57.068 8.1834 57.6563 8.74421 57.6563 9.5666C57.6563 10.4102 57.0495 10.999 56.1415 10.999ZM56.1665 8.62162C55.6783 8.62162 55.3651 9.02703 55.3651 9.59363C55.3651 10.1602 55.6848 10.555 56.1589 10.555C56.633 10.555 56.9538 10.1216 56.9538 9.58301C56.9538 9.03378 56.6428 8.62259 56.1665 8.62259V8.62162ZM60.3203 10.9382L60.2714 10.6274H60.2529C60.0463 10.8774 59.7451 10.999 59.3634 10.999C58.8187 10.999 58.4316 10.6602 58.4316 10.2046C58.4316 9.53861 59.0818 9.19402 60.2094 9.19402V9.14382C60.2094 8.78861 59.9974 8.61004 59.5777 8.61004C59.2775 8.61004 59.0144 8.67664 58.7828 8.81081L58.6458 8.41602C58.9274 8.26062 59.2775 8.18243 59.6897 8.18243C60.4845 8.18243 60.8858 8.55405 60.8858 9.29923V10.2934C60.8858 10.5656 60.8988 10.777 60.9293 10.9382H60.3203ZM60.2279 9.59363C59.4776 9.59363 59.1003 9.75483 59.1003 10.138C59.1003 10.4208 59.2949 10.5598 59.5635 10.5598C59.9071 10.5598 60.2268 10.3272 60.2268 10.0106V9.59363H60.2279ZM64.1686 10.9382L64.137 10.5048H64.1186C63.9239 10.832 63.5977 10.999 63.1421 10.999C62.4092 10.999 61.8655 10.4266 61.8655 9.62162C61.8655 8.8166 62.4288 8.18243 63.1975 8.18243C63.6042 8.18243 63.8924 8.30405 64.0555 8.54923H64.0685V7H64.7449V10.2104C64.7449 10.471 64.7525 10.7162 64.7699 10.9382H64.1686ZM64.0685 9.35039C64.0685 8.97297 63.7869 8.65058 63.3563 8.65058C62.855 8.65058 62.5484 9.04537 62.5484 9.60039C62.5484 10.1554 62.8659 10.5174 63.3422 10.5174C63.7673 10.5174 64.0674 10.1892 64.0674 9.80116V9.35135L64.0685 9.35039ZM69.0346 11C68.1462 11 67.571 10.4112 67.571 9.61197C67.571 8.81274 68.1593 8.18436 69.0857 8.18436C69.9621 8.18436 70.5504 8.74517 70.5504 9.56757C70.5504 10.4112 69.9447 11 69.0357 11H69.0346ZM69.0596 8.62259C68.5725 8.62259 68.2593 9.02799 68.2593 9.59459C68.2593 10.1612 68.579 10.556 69.0531 10.556C69.5272 10.556 69.848 10.1226 69.848 9.58398C69.849 9.03475 69.537 8.62355 69.0596 8.62355V8.62259ZM74.1844 10.9392H73.5081V9.389C73.5081 8.91216 73.3015 8.67278 72.8948 8.67278C72.4881 8.67278 72.2195 8.97876 72.2195 9.33398V10.9392H71.5432V9.01158C71.5432 8.77317 71.5367 8.51737 71.5182 8.23938H72.113L72.1445 8.65637H72.163C72.3446 8.36776 72.7132 8.18436 73.1264 8.18436C73.7647 8.18436 74.1844 8.61776 74.1844 9.32239V10.9392ZM78.7319 8.69015H77.9881V10.001C77.9881 10.3349 78.1186 10.501 78.3817 10.501C78.5013 10.501 78.6014 10.4894 78.6818 10.473L78.7003 10.9286C78.5698 10.973 78.3937 10.9952 78.1762 10.9952C77.6434 10.9952 77.3248 10.7346 77.3248 10.0512V8.69015H76.8811V8.24035H77.3248V7.74614L77.9881 7.56853V8.24035H78.7319V8.69112V8.69015ZM82.3093 10.9392H81.6341V9.40058C81.6341 8.91795 81.4286 8.67278 81.0208 8.67278C80.6707 8.67278 80.3444 8.88417 80.3444 9.31178V10.9392H79.6692V7.00193H80.3444V8.62355H80.3575C80.5706 8.32915 80.8783 8.18436 81.272 8.18436C81.9157 8.18436 82.3093 8.62838 82.3093 9.33398V10.9392ZM85.9749 9.73359H83.9469C83.96 10.2442 84.3406 10.5328 84.9049 10.5328C85.205 10.5328 85.4812 10.4884 85.7248 10.4054L85.8303 10.8224C85.5421 10.9334 85.2039 10.9894 84.8103 10.9894C83.8588 10.9894 83.2956 10.4556 83.2956 9.62934C83.2956 8.80309 83.8719 8.17954 84.7342 8.17954C85.5117 8.17954 85.9988 8.69015 85.9988 9.46236C86.0032 9.55309 85.9956 9.64479 85.976 9.73456L85.9749 9.73359ZM85.3551 9.30598C85.3551 8.889 85.118 8.59556 84.6864 8.59556C84.2982 8.59556 83.9915 8.89575 83.9469 9.30598H85.3551Z" fill="white"/>
</g>
<defs>
<clipPath id="clip0_1_764">
<rect width="103" height="30" rx="15" fill="white"/>
</clipPath>
</defs>
</svg>
