<svg width="12" height="15" viewBox="0 0 12 15" fill="none" xmlns="http://www.w3.org/2000/svg">
<path d="M7.90817 3.40068V4.43109C8.17597 4.43109 8.43664 4.42473 8.69691 4.43228C9.41752 4.45295 10.0339 4.93636 10.2071 5.6392C10.2827 5.9457 10.3128 6.26413 10.358 6.57779C10.5426 7.85785 10.7355 9.13713 10.9019 10.42C10.9455 10.7555 11.0513 10.9825 11.3405 11.196C12.046 11.7171 12.1969 12.7289 11.7378 13.4826C11.5754 13.7489 11.4066 14.0113 11.2343 14.2713C11.1551 14.3906 11.0651 14.5039 10.9712 14.6116C10.7367 14.8803 10.4471 15.0012 10.0823 15C7.37851 14.992 4.67435 14.992 1.97058 14.9988C1.46905 15 1.09706 14.812 0.837974 14.379C0.65495 14.0733 0.445383 13.7835 0.259982 13.479C-0.260566 12.6235 0.0258543 11.5096 0.893435 11.0167C0.98059 10.9674 1.0206 10.9117 1.03407 10.8151C1.19412 9.67658 1.35694 8.53843 1.51976 7.40029C1.59701 6.86083 1.66911 6.32018 1.75547 5.78192C1.87749 5.02342 2.53748 4.45057 3.30246 4.43109C3.55877 4.42473 3.81508 4.4299 4.08328 4.4299V3.39988C4.01435 3.38318 3.93829 3.36728 3.86421 3.34582C3.10438 3.12638 2.711 2.24384 3.05605 1.52987C3.18322 1.2667 3.31117 1.00393 3.45022 0.747121C3.7101 0.266499 4.12131 0.0132685 4.66484 0.00730549C5.5546 -0.00223538 6.44437 -0.00263292 7.33414 0.00730549C7.87766 0.0136661 8.28808 0.268487 8.54756 0.750698C8.68344 1.00353 8.81021 1.26153 8.9354 1.51993C9.30541 2.28519 8.85815 3.19435 8.02741 3.37046C7.98898 3.37881 7.95095 3.38954 7.90856 3.40028L7.90817 3.40068ZM9.14298 5.35894C8.94887 5.22139 8.75435 5.18402 8.54756 5.18442C7.58411 5.18522 6.62066 5.18442 5.65721 5.18442C4.916 5.18442 4.17519 5.18442 3.43398 5.18442C3.22917 5.18442 3.03545 5.2194 2.85758 5.36252C3.22996 5.62807 3.54411 5.93338 3.80716 6.28957C4.63037 7.40665 4.99404 8.68433 5.07169 10.0503C5.10814 10.6931 5.08754 11.3391 5.09269 11.9839C5.09308 12.0415 5.09269 12.0996 5.09269 12.1644H6.90193C6.90193 12.0884 6.90114 12.0205 6.90193 11.9525C6.91382 11.0461 6.85677 10.1373 7.00572 9.23611C7.17409 8.21683 7.50211 7.25996 8.1003 6.40844C8.38395 6.00454 8.72385 5.6559 9.14298 5.35894ZM5.99949 14.2316C7.36345 14.2316 8.72742 14.2308 10.0914 14.2331C10.2336 14.2331 10.358 14.2077 10.44 14.0817C10.6674 13.7334 10.9079 13.3928 11.1162 13.0334C11.4787 12.4085 10.9914 11.5557 10.28 11.5442C10.1437 11.5422 10.0438 11.5891 9.96936 11.7056C9.84656 11.8976 9.71979 12.0868 9.59143 12.2749C9.28639 12.7209 8.89657 13.0044 8.32373 12.9336C8.2655 12.9264 8.20528 12.9328 8.14586 12.9328C6.60877 12.9328 5.07169 12.9312 3.535 12.9336C3.07863 12.9344 2.72447 12.7523 2.47014 12.3723C2.33227 12.1664 2.19441 11.9608 2.05615 11.7557C1.9175 11.5498 1.79271 11.5033 1.54907 11.5665C0.839162 11.7509 0.53848 12.5066 0.931466 13.128C1.11647 13.421 1.31574 13.7052 1.49599 14.001C1.60137 14.1739 1.73725 14.2359 1.93651 14.2351C3.29057 14.2292 4.64463 14.232 5.99909 14.232L5.99949 14.2316ZM10.1932 10.7877C9.9662 9.19636 9.74237 7.62569 9.51497 6.03078C9.43931 6.08961 9.38068 6.12658 9.33235 6.17429C9.18814 6.3166 9.03444 6.45216 8.90767 6.60959C8.13556 7.57043 7.78853 8.69904 7.69781 9.90596C7.64274 10.6362 7.67008 11.3733 7.66096 12.1071C7.66096 12.1254 7.6673 12.1441 7.67285 12.1747C7.93312 12.1747 8.18944 12.1671 8.44496 12.1771C8.626 12.1842 8.76545 12.1171 8.86805 11.9779C8.99086 11.8106 9.10812 11.638 9.21627 11.4611C9.43772 11.0986 9.71226 10.8163 10.1932 10.7885V10.7877ZM1.80182 10.7869C2.2887 10.8135 2.56204 11.1053 2.78587 11.4711C2.88927 11.6396 2.99504 11.809 3.11904 11.962C3.18718 12.0463 3.29176 12.1473 3.38684 12.1548C3.69861 12.1791 4.01356 12.164 4.33326 12.164C4.33326 11.5852 4.3392 11.0199 4.33167 10.455C4.32137 9.68652 4.20252 8.93478 3.95097 8.20769C3.69029 7.45316 3.3191 6.76582 2.71932 6.22279C2.64841 6.15839 2.57076 6.10194 2.48044 6.02919C2.25225 7.62887 2.02842 9.19715 1.80182 10.7873V10.7869ZM5.9979 2.64774C6.58104 2.64774 7.16379 2.65052 7.74693 2.64655C8.11179 2.64416 8.4093 2.28916 8.28214 1.96279C8.15061 1.62448 7.96363 1.30645 7.78179 0.990413C7.70415 0.85525 7.56153 0.772165 7.39633 0.771768C6.4725 0.76978 5.54866 0.769383 4.62483 0.773358C4.42913 0.774153 4.26155 0.864791 4.16647 1.03255C4.01277 1.30288 3.86143 1.57837 3.74813 1.86698C3.57779 2.2999 3.83133 2.64695 4.29364 2.64774C4.86173 2.64893 5.42981 2.64774 5.9983 2.64774H5.9979ZM7.14596 4.42155C7.14596 4.12578 7.13962 3.84472 7.14874 3.56406C7.1527 3.43844 7.1115 3.40624 6.99027 3.40704C6.32948 3.4122 5.6683 3.40942 5.00751 3.40982C4.95997 3.40982 4.91204 3.41459 4.86173 3.41697V4.42115H7.14636L7.14596 4.42155Z" fill="black"/>
</svg>
