<svg width="103" height="30" viewBox="0 0 103 30" fill="none" xmlns="http://www.w3.org/2000/svg">
<g clip-path="url(#clip0_1_771)">
<path d="M1.08552 33.5H1.08505C-0.269236 33.5013 -1.49741 32.1879 -1.5 30.3907V1.61403C-1.49741 -0.183161 -0.27038 -1.4986 1.08578 -1.5H101.919C103.273 -1.5 104.5 -0.183652 104.5 1.61208V30.3911C104.5 32.1854 103.274 33.5 101.923 33.5H101.92H1.08552Z" fill="#F2F2F2" fill-opacity="0.17" stroke="white"/>
<rect x="0.25" y="0.25" width="102.5" height="29.5" rx="14.75" stroke="white" stroke-width="0.5"/>
</g>
<path d="M38.0209 9.12898C38.0209 9.6449 37.8863 10.0966 37.5516 10.4188C37.1491 10.8063 36.681 10.9989 36.0772 10.9989C35.4733 10.9989 35.0052 10.8052 34.6027 10.4188C34.2001 10.0313 34 9.58068 34 8.99946C34 8.41823 34.2013 7.96762 34.6027 7.58014C35.0052 7.19265 35.4733 7 36.0772 7C36.3451 7 36.6131 7.06422 36.8811 7.19374C37.1491 7.32327 37.3504 7.4517 37.4838 7.64544L37.1491 7.96762C36.8811 7.64544 36.5464 7.51592 36.0772 7.51592C35.6746 7.51592 35.2732 7.64544 35.0052 7.96762C34.6705 8.22558 34.536 8.61306 34.536 9.06367C34.536 9.51429 34.6705 9.90177 35.0052 10.1597C35.3399 10.4177 35.6757 10.6114 36.0772 10.6114C36.5464 10.6114 36.8811 10.4819 37.2158 10.1597C37.4171 9.96599 37.5505 9.70803 37.5505 9.38585H36.076V8.86993H38.0197V9.12789L38.0209 9.12898ZM41.1032 7.51701H39.2941V8.74259H40.9687V9.19429H39.2941V10.4199H41.1032V10.9358H38.7581V7.06531H41.1032V7.51701ZM43.315 10.9358H42.779V7.51701H41.6403V7.06531H44.4547V7.51701H43.3161V10.9358H43.315ZM46.3973 10.9358V7.06531H46.9333V10.9358H46.3973ZM49.2117 10.9358H48.6757V7.51701H47.5371V7.06531H50.2848V7.51701H49.1461V10.9358H49.2128H49.2117ZM55.5777 10.4199C55.1752 10.8073 54.7071 11 54.1032 11C53.4994 11 53.0313 10.8063 52.6288 10.4199C52.2262 10.0324 52.0261 9.58177 52.0261 9.00054C52.0261 8.41932 52.2274 7.96871 52.6288 7.58122C53.0313 7.19374 53.4994 7.00109 54.1032 7.00109C54.7071 7.00109 55.1752 7.19483 55.5777 7.58122C55.9803 7.96871 56.1804 8.41932 56.1804 9.00054C56.1804 9.58177 55.9791 10.0324 55.5777 10.4199ZM53.0313 10.0977C53.2993 10.3556 53.7018 10.5494 54.1032 10.5494C54.5047 10.5494 54.9072 10.4199 55.1752 10.0977C55.4432 9.83973 55.6444 9.45224 55.6444 9.00163C55.6444 8.55102 55.5099 8.16354 55.1752 7.90558C54.9072 7.64762 54.5047 7.45388 54.1032 7.45388C53.7018 7.45388 53.2993 7.5834 53.0313 7.90558C52.7633 8.16354 52.5621 8.55102 52.5621 9.00163C52.5621 9.45224 52.6966 9.83973 53.0313 10.0977ZM56.9176 10.9358V7.06531H57.5203L59.464 10.0966V7.06531H60V10.9358H59.464L57.3869 7.77497V10.9358H56.9176Z" fill="white"/>
<path d="M52.1924 17.0581C50.5756 17.0581 49.2954 18.2302 49.2954 19.857C49.2954 21.4838 50.5756 22.6559 52.1924 22.6559C53.8091 22.6559 55.0893 21.4838 55.0893 19.857C55.0893 18.2302 53.8091 17.0581 52.1924 17.0581ZM52.1924 21.4849C51.3169 21.4849 50.5756 20.7687 50.5756 19.7922C50.5756 18.8157 51.3169 18.0995 52.1924 18.0995C53.0678 18.0995 53.8091 18.7508 53.8091 19.7922C53.8091 20.7687 53.0678 21.4849 52.1924 21.4849ZM45.9266 17.0581C44.3099 17.0581 43.0297 18.2302 43.0297 19.857C43.0297 21.4838 44.3099 22.6559 45.9266 22.6559C47.5434 22.6559 48.8236 21.4838 48.8236 19.857C48.8236 18.2302 47.5434 17.0581 45.9266 17.0581ZM45.9266 21.4849C45.0512 21.4849 44.3099 20.7687 44.3099 19.7922C44.3099 18.8157 45.0512 18.0995 45.9266 18.0995C46.8021 18.0995 47.5434 18.7508 47.5434 19.7922C47.5434 20.7687 46.8021 21.4849 45.9266 21.4849ZM38.4478 17.905V19.0771H41.3447C41.2776 19.7285 41.0082 20.2492 40.6705 20.5743C40.2657 20.9653 39.5927 21.4201 38.4466 21.4201C36.6275 21.4201 35.2802 20.0536 35.2802 18.2961C35.2802 16.5385 36.6946 15.1721 38.4466 15.1721C39.3903 15.1721 40.1305 15.5631 40.6705 16.0179L41.546 15.1721C40.8047 14.5207 39.8621 14 38.5137 14C36.0886 14 34 15.9531 34 18.2961C34 20.6391 36.0886 22.5922 38.5137 22.5922C39.861 22.5922 40.8047 22.2011 41.613 21.3553C42.4214 20.5743 42.6909 19.467 42.6909 18.6212C42.6909 18.3609 42.6909 18.1006 42.6238 17.905H38.4466H38.4478ZM69.0363 18.8168C68.7669 18.1654 68.0927 17.0592 66.6112 17.0592C65.1298 17.0592 63.9166 18.1654 63.9166 19.8581C63.9166 21.4201 65.1298 22.657 66.7465 22.657C68.0267 22.657 68.8351 21.876 69.1046 21.4201L68.1609 20.7687C67.8244 21.2246 67.4196 21.5497 66.7465 21.5497C66.0734 21.5497 65.6687 21.2894 65.3322 20.7039L69.1728 19.1419L69.0375 18.8168H69.0363ZM65.1286 19.7285C65.1286 18.6871 66.0041 18.1017 66.6112 18.1017C67.0831 18.1017 67.5549 18.362 67.6891 18.6871L65.1286 19.7285ZM61.9622 22.3977H63.2424V14.2614H61.9622V22.3977ZM59.9407 17.6458C59.6042 17.3207 59.0653 16.9944 58.3911 16.9944C56.9767 16.9944 55.6283 18.2313 55.6283 19.7933C55.6283 21.3553 56.9085 22.5274 58.3911 22.5274C59.0653 22.5274 59.6042 22.2022 59.8736 21.876H59.9407V22.267C59.9407 23.3084 59.3347 23.8938 58.3911 23.8938C57.6498 23.8938 57.1108 23.3732 56.9767 22.9173L55.8989 23.3732C56.2354 24.0894 57.0438 25 58.4593 25C59.8748 25 61.1538 24.1542 61.1538 22.1363V17.1888H59.9407V17.6447V17.6458ZM58.4581 21.486C57.5827 21.486 56.8414 20.7698 56.8414 19.7933C56.8414 18.8168 57.5827 18.1006 58.4581 18.1006C59.3336 18.1006 60.0078 18.8168 60.0078 19.7933C60.0078 20.7698 59.3336 21.486 58.4581 21.486ZM74.8973 14.2603H71.8651V22.3966H73.1453V19.3374H74.8973C76.3117 19.3374 77.6601 18.3609 77.6601 16.7989C77.6601 15.2369 76.3128 14.2603 74.8973 14.2603ZM74.9644 18.1665H73.1453V15.3676H74.9644C75.9081 15.3676 76.447 16.1486 76.447 16.7341C76.3799 17.4503 75.841 18.1665 74.9644 18.1665ZM82.7127 16.9944C81.7691 16.9944 80.8265 17.3855 80.4889 18.2313L81.6338 18.6871C81.9032 18.2313 82.308 18.1017 82.7787 18.1017C83.4529 18.1017 84.0589 18.4927 84.126 19.143V19.2078C83.9236 19.0771 83.3847 18.8827 82.8458 18.8827C81.6326 18.8827 80.4207 19.5341 80.4207 20.705C80.4207 21.8112 81.4314 22.5274 82.5092 22.5274C83.3847 22.5274 83.7894 22.1363 84.126 21.7464H84.1931V22.3977H85.4062V19.2737C85.2709 17.8413 84.126 16.9955 82.7116 16.9955L82.7127 16.9944ZM82.5775 21.486C82.1727 21.486 81.5667 21.2905 81.5667 20.7698C81.5667 20.1184 82.308 19.924 82.914 19.924C83.4529 19.924 83.7224 20.0547 84.0589 20.1843C83.9236 20.9653 83.2505 21.486 82.5763 21.486H82.5775ZM89.6516 17.1899L88.2372 20.705H88.1701L86.6875 17.1899H85.3402L87.5641 22.1374L86.2839 24.8715H87.5641L91 17.1899H89.6527H89.6516ZM78.3321 22.3977H79.6123V14.2614H78.3321V22.3977Z" fill="white"/>
<path d="M12.8055 7.70399C12.6018 7.90424 12.5343 8.23723 12.5343 8.63772V23.3704C12.5343 23.7709 12.6705 24.1039 12.8731 24.3041L12.9406 24.3705L21.3499 16.1042V15.9703L12.8055 7.70399Z" fill="url(#paint0_linear_1_771)"/>
<path d="M24.0633 18.9041L21.2823 16.1704V15.9702L24.0633 13.2365L24.1308 13.3029L27.4543 15.1692C28.4041 15.7024 28.4041 16.5687 27.4543 17.103L24.0633 18.903V18.9041Z" fill="url(#paint1_linear_1_771)"/>
<path d="M24.1308 18.8377L21.2823 16.0377L12.8055 24.3703C13.1443 24.7033 13.6192 24.7033 14.2292 24.4367L24.1308 18.8366" fill="url(#paint2_linear_1_771)"/>
<path d="M24.1308 13.2376L14.2292 7.70382C13.6192 7.37083 13.1443 7.43721 12.8055 7.7702L21.2823 16.0365L24.1308 13.2364V13.2376Z" fill="url(#paint3_linear_1_771)"/>
<path opacity="0.2" d="M24.0633 18.7705L14.2292 24.2368C13.6868 24.5698 13.2118 24.5034 12.8731 24.2368L12.8055 24.3032L12.8731 24.3695C13.2118 24.6361 13.6868 24.7025 14.2292 24.3695L24.0633 18.7694V18.7705Z" fill="#F2F2F2"/>
<path opacity="0.12" d="M12.8055 24.2379C12.6018 24.0376 12.5343 23.7046 12.5343 23.3041V23.3705C12.5343 23.771 12.6705 24.104 12.8731 24.3042V24.2379H12.8055ZM27.4543 16.9042L24.0633 18.7705L24.1308 18.8369L27.4543 16.9705C27.9292 16.7039 28.1329 16.3709 28.1329 16.0368C28.1329 16.3698 27.8617 16.6364 27.4543 16.903V16.9042Z" fill="#F2F2F2"/>
<path opacity="0.25" d="M14.2292 7.7715L27.4543 15.1716C27.8617 15.4382 28.1329 15.7048 28.1329 16.0378C28.1329 15.7048 27.9292 15.3707 27.4543 15.1041L14.2292 7.704C13.2793 7.17077 12.5343 7.57013 12.5343 8.63773V8.70411C12.5343 7.704 13.2805 7.23714 14.2292 7.77038V7.7715Z" fill="#F2F2F2"/>
<defs>
<linearGradient id="paint0_linear_1_771" x1="20.5819" y1="8.74382" x2="9.38955" y2="20.1365" gradientUnits="userSpaceOnUse">
<stop stop-color="#00A1FF"/>
<stop offset="0.26" stop-color="#00BEFF"/>
<stop offset="0.51" stop-color="#00D2FF"/>
<stop offset="0.76" stop-color="#00DFFF"/>
<stop offset="1" stop-color="#00E3FF"/>
</linearGradient>
<linearGradient id="paint1_linear_1_771" x1="28.7528" y1="16.3154" x2="12.3295" y2="16.3154" gradientUnits="userSpaceOnUse">
<stop stop-color="#FFE000"/>
<stop offset="0.41" stop-color="#FFBD00"/>
<stop offset="0.78" stop-color="#FFA500"/>
<stop offset="1" stop-color="#FF9C00"/>
</linearGradient>
<linearGradient id="paint2_linear_1_771" x1="22.6314" y1="17.803" x2="7.45701" y2="33.2467" gradientUnits="userSpaceOnUse">
<stop stop-color="#FF3A44"/>
<stop offset="1" stop-color="#C31162"/>
</linearGradient>
<linearGradient id="paint3_linear_1_771" x1="10.7211" y1="3.07989" x2="17.498" y2="9.97394" gradientUnits="userSpaceOnUse">
<stop stop-color="#32A071"/>
<stop offset="0.07" stop-color="#2DA771"/>
<stop offset="0.48" stop-color="#15CF74"/>
<stop offset="0.8" stop-color="#06E775"/>
<stop offset="1" stop-color="#00F076"/>
</linearGradient>
<clipPath id="clip0_1_771">
<rect width="103" height="30" rx="15" fill="white"/>
</clipPath>
</defs>
</svg>
