<svg width="18" height="17" viewBox="0 0 18 17" fill="none" xmlns="http://www.w3.org/2000/svg">
<g clip-path="url(#clip0_1_2564)">
<path d="M17.1492 5.09521C17.1492 5.09521 16.9834 3.92427 16.4726 3.41012C15.8257 2.73343 15.1026 2.73012 14.7709 2.69031C12.3958 2.51782 8.82995 2.51782 8.82995 2.51782H8.82332C8.82332 2.51782 5.25743 2.51782 2.88239 2.69031C2.55068 2.73012 1.82755 2.73343 1.18072 3.41012C0.669881 3.92427 0.507343 5.09521 0.507343 5.09521C0.507343 5.09521 0.334854 6.47181 0.334854 7.84509V9.13212C0.334854 10.5054 0.504026 11.882 0.504026 11.882C0.504026 11.882 0.669881 13.0529 1.1774 13.5671C1.82423 14.2438 2.67341 14.2206 3.05156 14.2935C4.41157 14.4229 8.82664 14.4627 8.82664 14.4627C8.82664 14.4627 12.3958 14.4561 14.7709 14.2869C15.1026 14.2471 15.8257 14.2438 16.4726 13.5671C16.9834 13.0529 17.1492 11.882 17.1492 11.882C17.1492 11.882 17.3184 10.5087 17.3184 9.13212V7.84509C17.3184 6.47181 17.1492 5.09521 17.1492 5.09521ZM7.07189 10.6945V5.92117L11.6594 8.31612L7.07189 10.6945Z" fill="black"/>
</g>
<defs>
<clipPath id="clip0_1_2564">
<rect width="16.9836" height="16.9836" fill="white" transform="translate(0.334854 0.00012207)"/>
</clipPath>
</defs>
</svg>
