<svg width="17" height="17" viewBox="0 0 17 17" fill="none" xmlns="http://www.w3.org/2000/svg">
<g clip-path="url(#clip0_551_114)">
<path d="M16.8348 4.97704C16.8348 4.97704 16.6728 3.83322 16.1738 3.33098C15.542 2.66997 14.8356 2.66673 14.5115 2.62784C12.1915 2.45935 8.70823 2.45935 8.70823 2.45935H8.70175C8.70175 2.45935 5.21847 2.45935 2.89844 2.62784C2.57441 2.66673 1.86803 2.66997 1.23618 3.33098C0.737179 3.83322 0.578406 4.97704 0.578406 4.97704C0.578406 4.97704 0.409912 6.32175 0.409912 7.66322V8.92044C0.409912 10.2619 0.575166 11.6066 0.575166 11.6066C0.575166 11.6066 0.737179 12.7504 1.23294 13.2527C1.86479 13.9137 2.6943 13.891 3.06369 13.9623C4.3922 14.0887 8.70499 14.1275 8.70499 14.1275C8.70499 14.1275 12.1915 14.1211 14.5115 13.9558C14.8356 13.9169 15.542 13.9137 16.1738 13.2527C16.6728 12.7504 16.8348 11.6066 16.8348 11.6066C16.8348 11.6066 17.0001 10.2651 17.0001 8.92044V7.66322C17.0001 6.32175 16.8348 4.97704 16.8348 4.97704ZM6.99089 10.4466V5.78386L11.4722 8.12333L6.99089 10.4466Z" fill="white"/>
</g>
<defs>
<clipPath id="clip0_551_114">
<rect width="16.5902" height="16.5902" fill="white" transform="translate(0.409912)"/>
</clipPath>
</defs>
</svg>
